<svg xmlns="http://www.w3.org/2000/svg" xmlns:xlink="http://www.w3.org/1999/xlink" width="368" height="240" viewBox="0 0 368 240"><defs><path id="cryib" d="M323.52 933.7c-2.8-6.16-6.23 1.5-7.12-5.11-2.35-17.5-14.89-5.88-14.89-9.3 0-19.76-6.6-13.31-22.04-13.31 0-19.47-16.1-11.13-13.47-2.37 6.27 20.93-15.88 13.2-15.94 13.1-10.05-18.65-41-6.77-41.48-11.63-3.07-31.64-17.87-8.25-18.65-16.75-2.13-23.38-20.3-5.7-19.97-12.7 1.24-26.6-11.22-12.3-11.2-11.12.49 17.95-7.76 12.05-8.16 9.6-4.53-27.94-9.45 10.09-16.5 9.88-4.3-.12-5.98 17.2-6.18 35.28-.24 21.6 4.6 35.68.68 49.6-11.89 42.15-11.48 70.93 33.3 76.3 54.94-1.71 115.2-5.79 169.37-2.7 65.77 3.74 124.39 4.55 137.88-.55 16.19-6.12 20.5-21.56 20.38-41.73-.1-15.63-.15-35.8-3.94-45.95-1.06-2.84-5.1-4.2-6.69-4.09-7 .47-2.79 1.6-4.93-8.73-8.13-1.87-4.3.21-3.71 7.58-7.04.66-7.96-2.26-7.96-8.64 0-12.77-.43-12.36-6.31-12.36-5.21 0-2.84 15.42-2.84 19.93 0 3.2-17.32 1.43-17.48-.38-1.4-15.67-10.33 5.15-10.33-12.1-12.13 0-1.08 15.77-6.78 15.77-11.36 0-16.27 3.04-16.27-5.09-2.96 0-7.11-1.18-6.06 1.36 2.54 6.15-13.78 2.1-13.78 2.03.48-11.27-19.66-2.94-19.66-11.1 0-9.26-11.38-3.01-11.36-2.67.76 13.18-7.6 8.6-9.45 3.62-2.18-5.85-12.59-6.08-18.46-5.67"/><path id="cryic" d="M453.9 963.54c-10.72 12.87-123.26 15.34-93.25 30.38 5.66 2.83 22.1 6.28.62 10.54-37.9 7.53-97.46 4.33-137.59 4.87-84.57 1.15-112.33 23.74-5.42 23.76 43.63.01 133.44-5.72 147.54-7.44 6.98-.85 80.75-8.29 79.3-18.06-1.45-9.82-89.62-7.4-21.64-27.41 7.35-2.17 45.95-12.32 49.1-19.65-.42-.17-17.09 5.3-18.65 3.01"/><path id="cryid" d="M242.62 837.49a.32.32 0 1 1-.62-.14 8.62 8.62 0 0 0-.08-4.75 5.87 5.87 0 0 0-2.9-3.3 9.74 9.74 0 0 0-4.54-1.03c-2.11 0-4.22.58-5.7 1.57l-.18.12a.32.32 0 0 1-.5-.25 3.48 3.48 0 0 0-.36-1.3c-.76-1.6-2.63-3.15-5-4.28a16.97 16.97 0 0 0-8.04-1.67c-1.47.09-2.9.4-4.2 1.03a.32.32 0 0 1-.27-.57c1.38-.67 2.89-1 4.43-1.1 2.87-.16 5.87.55 8.35 1.73 2.5 1.2 4.48 2.86 5.3 4.58.17.34.29.68.36 1.02a11.42 11.42 0 0 1 5.81-1.51c1.7 0 3.42.34 4.85 1.1a6.5 6.5 0 0 1 3.2 3.65c.47 1.37.56 3.06.1 5.1"/><path id="cryie" d="M248.91 833.51c.1.02.18.15.17.28-.01.14-.1.24-.21.22-.59-.09-1.87-.04-3.14 0-1.33.05-2.64.1-3.18 0-.1-.03-.17-.16-.16-.3.02-.13.11-.23.22-.2.51.1 1.8.05 3.1 0 1.3-.04 2.6-.09 3.2 0"/><path id="cryif" d="M252.06 833.89a.2.2 0 0 1-.19-.2c0-.12.09-.21.2-.21h2.22c.11 0 .2.1.2.2a.2.2 0 0 1-.2.2z"/><path id="cryig" d="M231.55 823.27c-.1 0-.19-.1-.19-.24 0-.13.09-.24.2-.24a797 797 0 0 0 9.7-.07c3.27-.04 6.54-.08 9.69-.08.1 0 .19.1.19.24 0 .13-.09.24-.2.24-3.3 0-6.49.04-9.67.08-3.27.04-6.55.07-9.72.07"/><path id="cryih" d="M246.42 828.44a.2.2 0 0 1-.19-.2c0-.12.09-.21.2-.21h4.14c.11 0 .2.1.2.2a.2.2 0 0 1-.2.2z"/><path id="cryii" d="M289.32 847.89c.1 0 .2.08.2.2 0 .1-.1.18-.2.18-2.06 0-4.23-.02-6.4-.04-6.16-.07-12.33-.13-18.44.34a.2.2 0 0 1-.03-.38c6.11-.47 12.3-.41 18.47-.35 2.1.03 4.2.05 6.4.05"/><path id="cryij" d="M293.87 843.57c.1 0 .18.13.17.27-.01.14-.1.25-.2.24-.39-.05-2.57-.1-4.78-.11-2.14-.02-4.32-.01-4.88.03-.1 0-.2-.1-.2-.24 0-.14.08-.26.18-.27.56-.04 2.75-.05 4.9-.03 2.22.02 4.42.06 4.8.1"/><path id="cryik" d="M307.68 832.64c-.11 0-.2-.1-.2-.25 0-.14.08-.25.19-.25l4.39-.12c.1 0 .2.1.2.25 0 .14-.09.26-.2.26z"/><path id="cryil" d="M143.19 1035.2a.32.32 0 1 1 0-.63c28.36.4 122.61-.18 199.36-4.17 46.27-2.4 86.16-6.03 101.38-11.43 5.54-1.97 9.3-4.4 11.22-6.95a6.45 6.45 0 0 0 1.51-4.33 6.43 6.43 0 0 0-2.1-4.12c-2.29-2.26-6.42-4.2-12.43-5.45-4.3-.89-9.58-1.73-15.26-2.48a509.8 509.8 0 0 0-20.2-2.25c-5.03-.46-8.38-1.38-10.03-2.59-.96-.7-1.37-1.5-1.24-2.38.12-.84.76-1.72 1.92-2.6 2.95-2.25 9.45-4.68 19.58-6.77 14.52-3 23.72-5.3 31.2-7.85 7.47-2.54 13.22-5.33 20.82-9.3a.32.32 0 1 1 .3.57c-7.63 3.98-13.4 6.78-20.91 9.34-7.5 2.56-16.73 4.87-31.28 7.87-10.03 2.06-16.44 4.45-19.33 6.65-1.01.77-1.57 1.5-1.67 2.18-.1.63.24 1.23.99 1.77 1.56 1.15 4.8 2.03 9.7 2.48 6.64.6 13.7 1.37 20.24 2.24 5.69.76 11 1.6 15.3 2.5 6.14 1.26 10.38 3.27 12.75 5.62a7.06 7.06 0 0 1 2.29 4.52c.1 1.59-.44 3.2-1.64 4.77-2 2.64-5.86 5.15-11.52 7.16-15.28 5.42-55.23 9.07-101.56 11.47-76.75 3.99-171.03 4.57-199.4 4.17"/><path id="cryim" d="M302.89 1011.76a.2.2 0 0 1 0-.38l13.82-.28c19.1-.38 42.72-.84 50.81-1.54 6.01-.53 9.5-1.42 11.23-2.49.92-.56 1.34-1.17 1.38-1.78.04-.63-.3-1.29-.9-1.95-1.36-1.53-4.05-3.03-6.57-4.14-5.51-2.44-11.36-5.37-12.76-8.43-1.42-3.13 1.65-6.33 14.07-9.17 7.54-1.73 18.23-3.26 29.23-4.84 13.51-1.94 27.5-3.95 36.67-6.45a.2.2 0 1 1 .1.37c-9.2 2.51-23.2 4.52-36.71 6.46-11 1.58-21.69 3.11-29.2 4.83-12.07 2.77-15.12 5.76-13.8 8.64 1.34 2.94 7.1 5.83 12.56 8.23 2.56 1.13 5.3 2.67 6.7 4.25.66.73 1.04 1.48 1 2.22-.06.74-.53 1.45-1.57 2.09-1.78 1.1-5.32 2-11.4 2.54-8.08.7-31.72 1.17-50.83 1.54l-13.83.28"/><path id="cryin" d="M132.43 934a.2.2 0 0 1-.26-.08.2.2 0 0 1 .08-.26c6.46-3.29 21.96-5.92 38.87-6.42 14.13-.42 29.27.64 40.96 4.04.1.03.16.13.13.24a.2.2 0 0 1-.24.13c-11.65-3.4-26.74-4.45-40.84-4.03-16.86.5-32.29 3.12-38.7 6.39"/><path id="cryio" d="M257.42 944.96a.2.2 0 1 1 .14-.36c1.94.78 4.05 1.52 6.32 2.22 2.24.7 4.64 1.36 7.18 1.97.1.03.17.13.14.23a.2.2 0 0 1-.23.14c-2.55-.61-4.95-1.27-7.2-1.97-2.27-.7-4.4-1.45-6.35-2.23m32.3 7.8a.2.2 0 0 1 .06-.38c24.86 3.87 46.32 6.36 67.72 7.2 21.4.85 42.75.05 67.37-2.67a.2.2 0 1 1 .04.38c-24.64 2.72-46 3.52-67.42 2.68-21.42-.85-42.9-3.34-67.77-7.2"/><path id="cryip" d="M174.46 837a.32.32 0 0 1-.55-.32c.99-1.63 1.01-3.37.44-4.9a7.28 7.28 0 0 0-4.68-4.37 4.63 4.63 0 0 0-4.11.67.32.32 0 0 1-.5-.26h-.01c0-1.8-.59-3.27-1.56-4.44a9.7 9.7 0 0 0-4.24-2.81c-1.7-.62-3.6-.91-5.44-.91-2.77 0-5.37.67-6.87 1.91a.32.32 0 1 1-.4-.5c1.61-1.33 4.36-2.05 7.27-2.05 1.9 0 3.87.3 5.65.95 1.8.64 3.4 1.63 4.53 3a7.34 7.34 0 0 1 1.68 4.27 5.3 5.3 0 0 1 4.17-.45 7.91 7.91 0 0 1 5.1 4.77c.64 1.7.62 3.63-.48 5.45"/><path id="cryiq" d="M134.5 830.8a.32.32 0 0 1-.59-.24c.98-2.41 3.74-3.51 6.58-3.82 1.23-.13 2.47-.11 3.6.01 1.12.12 2.12.36 2.86.66.83.34 1.36.8 1.42 1.3a.32.32 0 0 1-.64.07c-.03-.26-.4-.53-1.02-.78-.68-.28-1.63-.5-2.7-.62a16.27 16.27 0 0 0-3.45 0c-2.64.28-5.19 1.27-6.07 3.42"/><path id="cryir" d="M175.26 835.09c-.1 0-.2-.1-.2-.24 0-.14.08-.26.18-.26 2.33-.15 4.44-.1 6.55-.06 2.1.05 4.22.1 6.56-.05.1 0 .2.1.2.24 0 .14-.08.26-.19.26-2.34.15-4.46.1-6.58.06-2.1-.05-4.2-.1-6.52.05"/><path id="cryis" d="M178.5 832.48c-.11.01-.2-.09-.21-.22 0-.13.07-.24.18-.25 1.27-.1 2.55-.1 3.83-.08 1.26.01 2.53.03 3.8-.08.11 0 .2.1.21.22 0 .13-.07.25-.18.26-1.27.1-2.56.09-3.84.07-1.26 0-2.53-.02-3.8.08"/><path id="cryit" d="M192.57 834.81c-.1.02-.2-.08-.2-.22-.02-.14.05-.27.16-.28.63-.1 1.98-.05 3.32 0 1.35.04 2.7.1 3.23-.01.1-.02.2.07.22.21.01.14-.06.27-.16.29-.57.1-1.93.06-3.3.01-1.32-.05-2.66-.1-3.27 0"/><path id="cryiu" d="M164.57 824.01a.2.2 0 0 1-.01-.38l9.87-.25a.2.2 0 0 1 .01.39z"/><path id="cryiv" d="M168.38 821.22a.2.2 0 0 1-.26-.08.2.2 0 0 1 .08-.25c.55-.3 5.2-.32 8.47-.33l2.67-.03c.1 0 .2.08.2.19 0 .1-.08.2-.19.2l-2.68.02c-3.23.02-7.82.04-8.29.28"/><path id="cryia" d="M122 806.12h367.53v239.38H122z"/><path id="cryix" d="M144.64 806.75a.2.2 0 0 1-.02-.38l5.54-.25a.2.2 0 0 1 .02.39z"/><path id="cryiy" d="M185.37 840.01c.1 0 .2.1.2.24 0 .13-.1.24-.2.24l-3.53-.03c-1.14-.02-2.28-.04-3.5-.04-.1 0-.19-.1-.19-.24 0-.13.09-.24.2-.24 1.09 0 2.3.02 3.5.04 1.14.01 2.28.03 3.52.03"/><path id="cryiz" d="M221.66 847.76c.1 0 .2.1.2.2a.2.2 0 0 1-.2.2h-5.78a.2.2 0 0 1-.19-.2c0-.1.09-.2.2-.2z"/><path id="cryiA" d="M210.16 844.84c.1 0 .2.1.2.23 0 .12-.1.23-.2.23l-.68.01c-1.17.03-3.13.08-3.64-.16-.1-.05-.15-.18-.1-.3.03-.12.14-.18.24-.13.44.2 2.35.16 3.49.13l.7-.01"/><path id="cryiB" d="M285.22 884.03a.2.2 0 0 1-.02-.39c5.73-.35 6.85.43 6.98 2.41.03.49 0 1.05-.05 1.68a20.9 20.9 0 0 0-.03 3.02c0 .1-.07.2-.18.2a.2.2 0 0 1-.2-.17c-.1-1.18-.03-2.2.03-3.08.04-.62.07-1.16.04-1.63-.1-1.71-1.16-2.38-6.57-2.04"/><path id="cryiC" d="M295.78 911.51c0 .11-.08.2-.19.2a.2.2 0 0 1-.19-.2c0-1.16.06-2.42.13-3.67.07-1.35.13-2.69.12-3.9-.04-2.81-.52-4.95-2.53-4.92-3.71.04-4.08-.54-4.48-1.18-.36-.57-.75-1.2-4.9-1.29-.17 0-.4-.06-.66-.13-.3-.08-.66-.18-.92-.18a.2.2 0 0 1 0-.38c.31 0 .68.1 1.02.19.23.06.45.12.57.12 4.36.1 4.8.8 5.22 1.47.34.54.65 1.04 4.14 1 2.32-.04 2.88 2.26 2.92 5.3.02 1.23-.05 2.57-.12 3.92a72.5 72.5 0 0 0-.13 3.65"/><path id="cryiD" d="M269.62 879.43a.2.2 0 0 1 .33.2c-1.23 2.14-2 2.42-2.46 2.6-.2.07-.32.11-.39.4-.13.55-.13 1.85-.11 5.12v4.18c0 .71.07 1.66.14 2.74.1 1.43.22 3.06.22 4.64 0 3.57-.58 6.85-3.19 6.85H262a.2.2 0 1 1 0-.39h2.16c2.3 0 2.8-3.1 2.8-6.46 0-1.57-.11-3.2-.2-4.61-.08-1.1-.15-2.06-.15-2.77v-4.18c-.02-3.3-.02-4.61.12-5.21.12-.48.3-.56.63-.67.4-.16 1.1-.41 2.26-2.44"/><path id="cryiE" d="M278.51 896.9c0 .11-.08.2-.19.2a.2.2 0 0 1-.2-.2c0-.48.07-1.33.14-2.37.14-1.96.33-4.61.27-6.93-.08-2.75-.49-5.03-1.73-5-.5.02-.69-.16-.7-.45 0-.2.11-.44.23-.7.13-.26.26-.55.26-.78 0-.34-.32-.61-1.57-.62-.64 0-.85-.2-.85-.5v-.02c0-.21.14-.45.29-.7.16-.3.34-.62.34-.9 0-.63-.9-1.2-4.9-1.2a.2.2 0 1 1 0-.38c4.31 0 5.29.75 5.29 1.58 0 .38-.21.75-.4 1.08-.12.22-.23.42-.24.53 0 .08.12.12.47.13 1.55 0 1.96.45 1.96 1 0 .32-.16.64-.3.94-.1.22-.2.42-.2.53 0 .06.09.09.31.08 1.54-.04 2.04 2.41 2.12 5.37.06 2.34-.13 5-.26 6.96-.08 1.04-.14 1.88-.14 2.36"/><path id="cryiF" d="M196.74 876.84c.1 0 .2.08.2.19 0 .1-.1.19-.2.19-1.02 0-2.06-.3-3.02-.6l-.55-.15a.2.2 0 0 1-.14-.19c0-3.68.2-6.27.37-8.24.42-5.16.5-6.03-4.66-11.54a.2.2 0 1 1 .28-.26c5.27 5.64 5.2 6.53 4.76 11.83a93.08 93.08 0 0 0-.37 8.07l.41.12c.94.28 1.95.58 2.92.58"/><path id="cryiG" d="M213.45 889.65a.2.2 0 0 1-.14.36c-2.95-1.2-3.26-2.02-3.01-2.62.08-.2.2-.35.32-.49.08-.1.16-.18.19-.26.03-.07-.02-.14-.28-.26a5.73 5.73 0 0 0-2.5-.55c-.56 0-.85 0-1.02-.5-.15-.44-.13-1.33-.09-3.22.03-1.36.08-3.27.08-5.98 0-4.82-.9-5.66-3.66-5.66-.66 0-1.42.05-2.29.1-1.19.07-2.58.15-4.2.15a.2.2 0 0 1-.2-.2c0-.1.09-.18.2-.18 1.62 0 3-.08 4.18-.15.88-.05 1.65-.1 2.31-.1 3.05 0 4.04.9 4.04 6.04 0 2.65-.04 4.6-.07 6-.04 1.83-.06 2.7.07 3.08.07.23.28.23.65.24.55 0 1.39.02 2.65.58.54.24.6.49.48.77-.06.12-.15.23-.24.35-.1.12-.21.25-.27.38-.17.43.15 1.04 2.8 2.12"/><path id="cryiH" d="M302.25 909.6a.2.2 0 0 1 0-.38c4.1 0 4.94.74 4.94 3.57 0 .75-.06 1.66-.14 2.76-.12 1.64-.26 3.7-.26 6.29 0 4.62 1.35 5.63 3.03 5.63.69 0 1.43-.16 2.17-.32.73-.15 1.44-.3 2.1-.3 1.54 0 2.69.8 2.69 4.2v1.89c-.01 3.67-.03 9.57.14 10.68a.2.2 0 0 1-.38.06c-.17-1.13-.16-7.06-.15-10.74v-1.88c0-3.1-.98-3.83-2.3-3.83-.62 0-1.32.14-2.02.3-.76.16-1.53.32-2.25.32-1.9 0-3.42-1.08-3.42-6.01 0-2.59.15-4.66.27-6.32.07-1.08.14-1.99.14-2.73 0-2.52-.78-3.19-4.56-3.19"/><path id="cryiI" d="M158.13 881.52a.2.2 0 1 1-.1-.37c1.26-.35.83-2.09.3-4.2-.68-2.77-1.51-6.13.9-8.22 1.02-.9.7-2.69.4-4.41v-.02c-.18-.94-.34-1.85-.29-2.62.09-1.29.74-2.15 2.8-2 .76.04 1.04-1.61 1.2-3.86.06-.93.1-1.95.14-2.99.12-3.39.26-7.04 1.29-8.6.61-.93 1.5-1.17 2.8-.3.06.03.09.1.09.15v.34c.04 1.3.26 4.59.6 7.56.34 2.88.77 5.45 1.2 5.45h.04l.21.03c.42.06 1.35.19 1.92.19a.2.2 0 1 1 0 .38c-.58 0-1.54-.13-1.97-.19l-.19-.02c-.7 0-1.23-2.73-1.59-5.8-.35-2.97-.56-6.28-.6-7.6v-.23c-1.03-.65-1.72-.46-2.19.25-.97 1.47-1.1 5.07-1.23 8.4a100.9 100.9 0 0 1-.14 3c-.17 2.47-.53 4.29-1.6 4.22-1.77-.12-2.32.59-2.4 1.64-.04.73.11 1.62.28 2.53v.02c.33 1.83.67 3.73-.52 4.77-2.23 1.93-1.43 5.17-.77 7.83.57 2.32 1.04 4.22-.58 4.67"/><path id="cryiJ" d="M173.44 869.54a.2.2 0 0 1 0-.38c1.9 0 2.47 1 2.47 2.43 0 .94-.26 2.07-.52 3.21-.22.99-.44 1.99-.5 2.86-.1 1.52.31 2.68 2.18 2.8a.2.2 0 0 1-.02.39c-2.18-.15-2.66-1.48-2.54-3.21.06-.9.28-1.92.51-2.92.25-1.12.5-2.22.5-3.13 0-1.2-.47-2.05-2.08-2.05"/><path id="cryiK" d="M158.7 854.36a.2.2 0 1 1-.13.36c-2.84-.96-4.39-.53-5.25-.3-.57.17-.9.25-1.12-.12-.23-.36-.24-1.22-.28-3.17-.03-1.61-.07-4-.25-7.48l-3.3-.23c-.7-.06-1.42-.1-2.09-.1-.67 0-1.3.03-1.8.12-.67.1-1.1.3-1.1.6h-.01v.64c0 1.72.01 2.5-.57 2.89-.45.3-1.22.28-2.62.23-.63-.02-1.38-.04-2.33-.04a.2.2 0 1 1 0-.38c.91 0 1.7.02 2.34.04 1.32.04 2.05.06 2.4-.17.4-.27.4-.99.4-2.57v-.64c0-.54.56-.84 1.42-.98.53-.09 1.18-.12 1.87-.12.7 0 1.43.04 2.12.1 1.41.1 2.7.35 3.3.49a.2.2 0 0 1 .35.1c.18 3.48.23 5.87.25 7.5.04 1.87.05 2.7.22 2.97.08.13.3.07.69-.04.91-.25 2.54-.7 5.48.3"/><path id="cryiL" d="M153.32 866.42c.1 0 .19.09.19.2 0 .1-.09.18-.2.18-1.32 0-4.43.07-7.03.15a53.8 53.8 0 0 0-4 .21c-1.5.27-1.91.93-2.9 2.51a40.74 40.74 0 0 1-3.94 5.38c-1.03 1.21-1.83 1.2-3.6 1.2-.68-.01-1.53-.02-2.6.05a.2.2 0 0 1-.21-.18c0-.1.07-.2.18-.2 1.08-.07 1.94-.06 2.64-.06 1.64.01 2.38.02 3.3-1.06a40.39 40.39 0 0 0 3.9-5.33c1.06-1.68 1.5-2.39 3.17-2.68.43-.08 2.1-.16 4.05-.22 2.62-.09 5.74-.15 7.05-.15"/><path id="cryiM" d="M235.77 878.66a.2.2 0 0 1-.03.38l-.35.01c-1.56.04-7.36.18-7.4-.57-.04-.58-.02-1.05-.01-1.43v-.45c0-.62-.18-.74-1.44-.73-3.53.03-4.06.88-4.05 2.58 0 .35.03.75.06 1.18.05.88.12 1.9.03 3.08a.2.2 0 1 1-.38-.03c.08-1.15.02-2.16-.03-3.02-.03-.43-.06-.83-.06-1.2-.02-1.96.56-2.94 4.42-2.97 1.6-.01 1.83.16 1.84 1.11v.46c-.02.37-.03.83 0 1.4.02.38 5.53.24 7.01.2h.39"/><path id="cryiN" d="M324.14 939.08a.2.2 0 0 1 0-.38c6.28 0 7.62.56 7.62 1.36 0 .29-.18.58-.36.88-.11.18-.22.36-.3.54-.15.4-.05.83 1 1.25.13.04 1.55.08 3.38.1 3.27.06 7.93.07 8.92.07a.2.2 0 0 1 0 .38c-.97 0-5.57 0-8.92-.06a33.75 33.75 0 0 1-3.5-.14c-1.37-.52-1.46-1.14-1.23-1.74.08-.21.2-.4.32-.6.15-.25.3-.5.3-.68 0-.57-1.27-.98-7.23-.98"/><path id="cryiO" d="M364.89 944.76a.2.2 0 0 1 .03-.38c1.9.16 3.48.06 4.76-.02.62-.04 1.18-.08 1.66-.08 2.04 0 2.98.58 2.98 3.75a.2.2 0 0 1-.39 0c0-2.85-.81-3.37-2.59-3.37-.48 0-1.02.04-1.63.08-1.3.08-2.9.18-4.82.02"/><path id="cryiQ" d="M273.92 887.74H276v-2.58h-2.08z"/><path id="cryiR" d="M269.41 887.74h2.08v-2.58h-2.08z"/><path id="cryiS" d="M273.92 896.62H276v-2.58h-2.08z"/><path id="cryiT" d="M168.85 875.1h2.42v-3.52h-2.42z"/><path id="cryiU" d="M162.09 875.1h2.42v-3.52h-2.42z"/><path id="cryiV" d="M162.09 868.08h2.42v-3.53h-2.42z"/><path id="cryiW" d="M140.3 857.83h2.08v-2.58h-2.08z"/><path id="cryiX" d="M145.77 851.68h2.08v-2.58h-2.08z"/><path id="cryiY" d="M180.77 861.94h2.42v-3.53h-2.42z"/><path id="cryiZ" d="M180.77 875.73h2.42v-3.53h-2.42z"/><path id="cryiaa" d="M186.64 868.77h2.42v-3.53h-2.42z"/><path id="cryiab" d="M310.96 935.92h2.08v-2.58h-2.08z"/><path id="cryiac" d="M306.04 943.43h2.08v-2.58h-2.08z"/><path id="cryiad" d="M296.14 937.35h2.08v-2.58h-2.08z"/><path id="cryiae" d="M148.18 885.29h2.42v-3.53h-2.42z"/><path id="cryiaf" d="M181.07 884.12h2.42v-3.53h-2.42z"/><path id="cryiag" d="M162.09 881.97h2.42v-3.53h-2.42z"/><path id="cryiah" d="M135.34 899.02h2.08v-2.58h-2.08z"/><path id="cryiai" d="M135.34 893.05h2.08v-2.58h-2.08z"/><path id="cryiaj" d="M201.8 877.78h2.42v-3.53h-2.42z"/><path id="cryiak" d="M201.8 890.2h2.42v-3.53h-2.42z"/><path id="cryial" d="M195.92 885h2.42v-3.52h-2.42z"/><path id="cryiam" d="M127.48 900.76a.2.2 0 0 1 0-.38c.25 0 .48 0 .71.02 1.64.05 2.98.1 3.03-1.9l.02-.92c.05-2 .12-4.66.13-6.7.02-4.29.45-5.44 3.2-5.43 1.02 0 2.38.18 4.19.43l.7.09h.02c.42.06.78.1 1.07.1 1.08.01 1.37-.7 1.39-4.42 0-.1.08-.19.19-.19.1 0 .19.09.19.2-.02 4.04-.4 4.8-1.77 4.8-.32 0-.69-.05-1.12-.11h-.01l-.71-.1c-1.8-.23-3.14-.41-4.15-.42-2.4 0-2.79 1.07-2.8 5.05-.02 2.06-.08 4.71-.14 6.7l-.02.92c-.06 2.39-1.57 2.34-3.42 2.28l-.7-.02"/><path id="cryian" d="M237.56 896.18c-13.8-4.7-19.11 7.37-19.11 18.47 0 5.05 1.2 26.32-6.23 27.41-3.76.55-11.65 2.46-4.77 6.75 9.79 6.12 14.5 5.66 26.4 3.8 6.21-.96 14.35-6.36 17.36-12.34 4.2-8.37 3.47-19.2 1.5-28.07-2.77-12.55 3.22-10.01-6.29-10.76-.38-.03-7.58-4.82-8.86-5.26"/><path id="cryiao" d="M261.56 981.56c-3.57 5.28-24.98 15.91-31.16 8.9-12.5-14.16 24.85-33.7-10.23-28.65-15.36 2.2-45.04 13.9-41.96 33.39.83 5.2 5.39 6.49 11.67 6.24-.65 12.62 8.46 20 17.06 10.03 1.24-1.43 7.78-8.67 9.8-13.44 1.05-.06 2.1-.1 3.12-.1 20.42 0 17.8-1.77 34.68-7.75 14.53-5.15-2.05 4.86 7.18 4.86a9 9 0 0 0 4-1.19c1.82.75 1.5 5.23 5.9 10.27 4.8 5.5 10.57 4.75 15.24 0 3.5-3.56 5.78-1.41 5.78-11.7 0-4.1-.38-7.22-1.4-9.26a50 50 0 0 1 1.7-.19c3.62-.33 7.3-1.81 3.3-5.88-2.1-2.14-11.65-1.89-11.92-9.64-.26-7.22-2.45-18.59-5.69-25.03-1.6-3.17-2.85-6.11-1.78-8.55.58-1.32.65-14.14-10.23-7.13-9.4 6.06 1.84 7.07 2.74 10.31 3.14 11.28 1.12 25.62-2.76 36.37-.72 2-3.55 6.76-5.04 8.14"/><path id="cryiap" d="M174.9 1022.15c8.2 2.56 21.13 2.6 35.06 2.51 29.04-.2 63.21-2.78 76.9-3.69 39.35-2.6-146.55-9.6-111.95 1.18"/><path id="cryiaq" d="M220.1 996.94a.32.32 0 1 1 0-.63h.71c5.6-.04 29.38-.17 43.32-9.3a.32.32 0 0 1 .35.53c-14.1 9.23-38.04 9.37-43.66 9.4h-.72"/><path id="cryiar" d="M177.26 991.68a.32.32 0 1 1 .03.64c-1.4.06-2.77.18-4.13.3-1.2.12-2.4.23-3.6.3.28.43 1 1.47 1.62 2.43.44.7.86 1.33 1.07 1.69l2.38-.22c1.18-.11 2.4-.23 2.8-.24a.32.32 0 1 1 .03.63c-.38.02-1.6.13-2.77.24-1.13.11-2.23.22-2.58.22H172a.32.32 0 0 1-.21-.16c-.15-.27-.63-1-1.15-1.8a30.9 30.9 0 0 1-1.83-3.08l.01-.11a.32.32 0 0 1 .3-.23c1.33-.05 2.65-.17 3.99-.3 1.36-.12 2.74-.25 4.15-.31"/><path id="cryias" d="M181.7 1009.7a.2.2 0 1 1-.01.39c-1.86-.04-3.82.18-5.64.38-1.72.19-3.32.36-4.62.3a.2.2 0 0 1 .02-.38c1.26.06 2.85-.12 4.56-.3 1.83-.2 3.8-.42 5.68-.39"/><path id="cryiat" d="M235.15 952.03a.32.32 0 0 1 .06-.64c13.54 1.43 14.73 6.27 13.99 13.25-.11 1.09-.27 2.2-.44 3.38-.36 2.52-.75 5.27-.77 8.18a17.94 17.94 0 0 0 3.24 1.12.32.32 0 1 1-.1.64c-.36-.07-1.4-.37-2.28-.69a5.1 5.1 0 0 1-1.38-.67.32.32 0 0 1-.12-.24c0-3.01.4-5.84.78-8.43.16-1.17.32-2.3.43-3.36.7-6.6-.44-11.17-13.41-12.54"/><path id="cryiau" d="M165.72 960.56a.32.32 0 1 1 .46-.44c2 2.03 5.33 5.54 8.6 9 4.75 5.03 9.4 9.94 9.54 9.95a.32.32 0 0 1-.02.64c-.4-.02-5.14-5.03-9.99-10.15-3.27-3.46-6.58-6.96-8.59-9"/><path id="cryiav" d="M208.96 971.8c-4.94 1-2.34 5.96 4.79 2.86 3.58-1.55-1.28-3.56-4.79-2.85m-10.15 5.65c5.24-3.8 5.99-.08 4.11 2.45-3.05 4.13-3.04 6.54-2.57 8.16 2.55 8.83-22.28 4.38-1.54-10.61"/><path id="cryiaw" d="M219.67 955.03c-4-.36-11.63.12-15.05 2.02-4.16 2.32.88 2.42-3.9 4.44-.7.3-4.56 6.46 6.48 2.26 4.95-1.88 26.68-2.26 27.25-5.09 1.33-6.68-9.35-.82-14.68-3.6z"/><path id="cryiax" d="M232.85 960.96a.32.32 0 0 1-.32-.55c.24-.14.52-.47.75-.9l.01-.03c.23-.42.4-.95.44-1.5a2.82 2.82 0 0 0-.37-1.63v-.02a3.42 3.42 0 0 0-1.4-1.25.32.32 0 0 1-.13-.43.32.32 0 0 1 .43-.13c.78.41 1.31.92 1.64 1.48l.02.02c.37.65.5 1.35.44 2a4.52 4.52 0 0 1-.5 1.76l-.01.02c-.3.54-.66.97-1 1.16m-10.96-5.93a.32.32 0 0 1 .12.63c-1.3.26-2.89.56-4.59.76-1.71.2-3.55.3-5.32.16-3.51-.28-5.86.27-7.3 1.21a4 4 0 0 0-1.6 1.9c-.26.7-.28 1.44-.1 2.15.24 1 .9 1.94 1.83 2.56a.32.32 0 0 1-.35.53 5.01 5.01 0 0 1-2.1-2.94 4.2 4.2 0 0 1 .13-2.53c.31-.82.91-1.59 1.84-2.2 1.55-1.02 4.03-1.62 7.7-1.32 1.73.14 3.52.04 5.2-.16 1.69-.2 3.26-.49 4.54-.75"/><path id="cryiay" d="M244.36 949.98a.32.32 0 1 1-.28-.57c5.55-2.68 8.32-1.6 9.58 1.02 1.81 3.75.3 10.72-.36 13.8l-.25 1.2a4.98 4.98 0 0 0 2.1.14.32.32 0 0 1 .12.63 5.48 5.48 0 0 1-2.64-.25.32.32 0 0 1-.21-.2c-.06-.19.06-.77.26-1.66.65-3.01 2.12-9.83.4-13.38-1.1-2.28-3.61-3.2-8.72-.73"/><path id="cryiaz" d="M199.74 961c-1.44-1.11-5.13.4-5.93 2.88-1.62 5.02 2.15 6.58 5.65 3.35 2.08-1.91.5-6.05.28-6.23"/><path id="cryiaA" d="M202.51 961.46a.32.32 0 1 1 .03.64H202c-.33-.01-.75-.02-1.15 0-.64.04-1.24.14-1.22.44.04.75.11 1.44.18 2.1.07.72.14 1.4.16 2.1a.32.32 0 0 1-.63.02 35.6 35.6 0 0 0-.17-2.05c-.07-.67-.13-1.38-.18-2.13-.04-.82.85-1.06 1.82-1.12.42-.02.86 0 1.2 0h.5"/><path id="cryiaB" d="M199.36 961.97a.32.32 0 0 1-.27.58c-.97-.45-1.79-.24-2.34.3-.28.27-.5.61-.64 1v.02c-.15.39-.21.81-.2 1.23.04 1.04.6 2.07 1.84 2.5a.32.32 0 1 1-.21.6 3.28 3.28 0 0 1-2.27-3.08c-.02-.5.07-1 .23-1.47l.01-.02c.18-.48.45-.9.8-1.24.73-.71 1.8-1 3.05-.42"/><path id="cryiaC" d="M283.25 954.4c-.9-4.58-7.9 3.32-1.79 8.03 3.3 2.54 1.98-7.07 1.8-8.03"/><path id="cryiaD" d="M274.34 934.37a.32.32 0 1 1 .58-.28c2.31 4.84 6.03 12.63 8.37 20.1 2.37 7.56 3.33 14.81.05 18.46a.32.32 0 1 1-.47-.43c3.09-3.43 2.12-10.47-.19-17.83-2.33-7.44-6.03-15.2-8.34-20.02"/><path id="cryiaE" d="M282.56 953.57a.32.32 0 0 1 .1.63 2.72 2.72 0 0 0-2.35 2.37 4.31 4.31 0 0 0 .66 3.06c.46.62 1.11.95 1.86.68a.32.32 0 0 1 .22.6c-1.06.39-1.97-.06-2.6-.9a4.93 4.93 0 0 1-.78-3.55 3.33 3.33 0 0 1 2.9-2.89"/><path id="cryiaF" d="M235.2 948.23a.32.32 0 0 1 .17-.42c.16-.06.35.02.42.18.18.45.36 1.18.33 1.93a2.9 2.9 0 0 1-.58 1.7c-.4.5-1.02.87-1.96.98-.9.1-2.08-.04-3.65-.53a.32.32 0 1 1 .2-.61c1.47.46 2.57.6 3.38.5.75-.08 1.23-.36 1.53-.73.3-.38.42-.86.44-1.34a4.24 4.24 0 0 0-.29-1.66"/><path id="cryiaG" d="M215.56 944.06a.2.2 0 1 1 .26.28c-.54.51-1.51.92-2.54 1.2-1.23.34-2.56.5-3.35.42a.2.2 0 0 1-.18-.2c.01-.1.1-.19.2-.18.76.07 2.04-.08 3.23-.41a6.06 6.06 0 0 0 2.38-1.1"/><path id="cryiaH" d="M214.18 948.26c.1 0 .2.07.21.17a.2.2 0 0 1-.17.22c-1.39.17-2.57.15-3.77-.1-1.2-.27-2.4-.77-3.83-1.58a.2.2 0 0 1 .19-.34c1.4.8 2.57 1.29 3.72 1.54 1.15.25 2.3.26 3.65.1"/><path id="cryiaI" d="M193.06 1000.25c-2.2 3.3-1.57 11.51 4.61 12.8 6.76 1.43 10.73-2 12.42-8.08 1.2-4.28.54-5.82 4.12-7.68 3.78-1.96 2.74-.26 2.78 5.35.05 6.86-5.86 15.33-12.97 16.73-6.64 1.31-12.86-2.21-16.15-7.84-.71-1.23-1.62-11.22 2.58-11.22.41 0 2.45.17 2.6-.06"/><path id="cryiaJ" d="M192.29 1000.03a.32.32 0 0 1 .55.32c-.13.23-.25.5-.36.79-.58 1.65-.62 4.05-.08 6.3.53 2.22 1.63 4.28 3.34 5.27.24.13.5.25.76.35a.32.32 0 0 1-.21.6c-.3-.1-.6-.24-.87-.4-1.87-1.09-3.07-3.3-3.65-5.68-.56-2.36-.51-4.9.11-6.65.12-.33.25-.63.4-.9"/><path id="cryiaK" d="M212.27 1001.06a.32.32 0 0 1 .64 0c0 .48 0 .96-.04 1.42a14.86 14.86 0 0 1-3.28 8.53 10.16 10.16 0 0 1-8.72 3.7.32.32 0 0 1 .04-.64c.3.02.6.03.89.02a9.53 9.53 0 0 0 7.3-3.5c1.8-2.12 2.9-5.03 3.13-8.16.03-.45.05-.91.04-1.37"/><path id="cryiaL" d="M271.19 992.4c0 9.09.93 13.12 10.75 13.12 7.42 0 11.44-15.2 4.22-19.21-2.34-1.3 9.76-6.9 8.53 8.12-.5 6.06-5.1 14.75-12.36 15.57-16.37 1.86-20.38-13.58-13.51-16.41.45-.19 2.37-.86 2.37-1.18"/><path id="cryiaM" d="M285.89 985.15a.32.32 0 0 1 .29-.57c1.5.77 2.6 1.92 3.36 3.21a11.02 11.02 0 0 1 1.45 4.92 14.8 14.8 0 0 1-1.2 6.84 11.4 11.4 0 0 1-4.07 4.91 10.98 10.98 0 0 1-4.95 1.72 9.75 9.75 0 0 1-4.95-.78c-.16-.07-.23-.26-.16-.42a.32.32 0 0 1 .42-.16c1.47.67 3.08.87 4.64.72 1.71-.16 3.35-.75 4.65-1.6 1.65-1.1 2.97-2.71 3.84-4.65a14.17 14.17 0 0 0 1.14-6.55c-.08-1.48-.5-3.16-1.36-4.62a7.58 7.58 0 0 0-3.1-2.97"/><path id="cryiaN" d="M265.78 994.85a.32.32 0 0 1 .64.04c-.06.9-.07 1.76-.02 2.57.22 4.11 1.65 7.2 3.76 9.3 2.11 2.1 4.9 3.22 7.84 3.4a14.11 14.11 0 0 0 11.66-5.1 19.4 19.4 0 0 0 3.62-6.41 18.94 18.94 0 0 0 1.02-7.02c-.16-3.13-1.25-5.96-3.36-7.79a.32.32 0 0 1 .41-.48c2.26 1.95 3.41 4.94 3.59 8.24.13 2.35-.24 4.85-1.06 7.25-.81 2.4-2.08 4.7-3.74 6.63a14.74 14.74 0 0 1-12.19 5.32 12.7 12.7 0 0 1-8.24-3.59c-2.22-2.2-3.72-5.43-3.95-9.72-.04-.84-.04-1.72.02-2.64"/><path id="cryiaO" d="M197.72 1000.14c-1.62 4.2-.39 8.06 4.54 7.9 3.31-.11 8.2-9.02 4.07-9.02-1 0-8.37.5-8.6 1.12"/><path id="cryiaP" d="M206.62 999.26a.32.32 0 0 1 .54-.35c.37.58.48 1.47.43 2.35a5.9 5.9 0 0 1-.72 2.6.32.32 0 0 1-.54-.35c.32-.49.56-1.39.62-2.29.05-.76-.04-1.5-.33-1.96"/><path id="cryiaQ" d="M201.22 1004.74c.95-.65 2.6-2.06 1.73-3.42-2.13-3.3-6.17 6.45-1.73 3.42"/><path id="cryiaR" d="M188.88 1001.63a.2.2 0 0 1-.12-.24.2.2 0 0 1 .24-.12c.8.27.67.61.48 1.12-.16.44-.4 1.07.4 2.03.4.48.1.98-.23 1.53-.44.72-.95 1.56.58 2.42.7.38.34 1.06-.04 1.78-.2.35-.39.73-.43 1.04-.04.4.22.74 1.29.87.89.1.83.64.76 1.23l-.03.39c0 .46.23.89 1.7.9.69 0 .93.6 1.18 1.21.1.25.2.5.32.68.25.35.66.47 1.6-.2.57-.38.91-.08 1.38.34.4.36.9.81 1.77.86.23 0 .6-.24 1.02-.5.45-.3.94-.6 1.4-.7.97-.17 1.8.25 2.47.6.33.17.63.32.87.35.37.05.64-.27.8-1.51.08-.57.63-.62 1.34-.7.62-.05 1.38-.13 1.95-.6.23-.19.34-.68.44-1.2.07-.35.15-.72.28-1.04.29-.72.59-.7.86-.69.2.01.37 0 .5-1.88.04-.6.31-.87.65-1.2.5-.5 1.15-1.16 1.18-3.64v-.05c0-.03.02-.05.03-.06l.14-.17c.41-.44 1.77-1.88 1.28-3.64a.2.2 0 1 1 .37-.1c.55 1.96-.92 3.53-1.37 4-.04.05-.07-.05-.07.02-.03 2.64-.75 3.36-1.3 3.9-.27.29-.5.51-.52.97-.16 2.26-.5 2.25-.9 2.23h-.01c-.14 0-.3-.01-.49.45-.11.3-.18.64-.25.98-.12.58-.24 1.14-.57 1.41-.67.55-1.5.63-2.16.7-.54.05-.96.1-1 .36-.2 1.54-.62 1.92-1.23 1.84-.3-.04-.63-.2-1-.4-.62-.31-1.38-.7-2.23-.55-.38.07-.83.37-1.25.64-.47.3-.9.57-1.24.56h-.01c-1-.05-1.56-.55-2-.95-.34-.3-.59-.53-.9-.3-1.2.83-1.77.62-2.14.09-.16-.22-.26-.49-.37-.76-.2-.48-.39-.97-.83-.97-1.8-.01-2.08-.62-2.07-1.29 0-.15.01-.29.03-.43.04-.39.08-.74-.43-.8-1.36-.17-1.7-.68-1.62-1.3.05-.38.26-.78.47-1.17.29-.55.56-1.07.2-1.27-1.89-1.05-1.27-2.07-.73-2.95.26-.43.5-.82.27-1.08-.94-1.13-.67-1.88-.47-2.41.1-.3.18-.48-.24-.63"/><path id="cryiaS" d="M187.84 1000.17a.32.32 0 0 1 .62.14c-1.77 7.53.2 12.8 3.79 15.7a12.2 12.2 0 0 0 6.66 2.61 14.7 14.7 0 0 0 7.49-1.38c5.44-2.56 10-8.58 10.16-18.27a.32.32 0 0 1 .64.01c-.17 9.98-4.89 16.19-10.53 18.84a15.34 15.34 0 0 1-7.82 1.44 12.84 12.84 0 0 1-7-2.75c-3.77-3.05-5.85-8.54-4.01-16.34"/><path id="cryiaT" d="M220.16 966.63c-28.01-.46-51.38 38.08-16.66 28.2 6.2-1.77 9.61-6.63 11.02-12.85 4.06-17.93 21.63 6-7.97 14.65-13.1 3.82-29.9 2.94-25.72-7.23 7.47-18.23 26.32-24.5 36.32-25.13 8.61-.55 10.17 2.48 3.01 2.36"/><path id="cryiaU" d="M185.29 989.28a.32.32 0 0 1-.58-.27c4.23-9.1 14.64-16.75 24.4-20.33a32.52 32.52 0 0 1 10.77-2.2c3.26 0 6.03.77 7.89 2.5a7.93 7.93 0 0 1 2.42 5.11 64.55 64.55 0 0 0 2.96-4.9 35.23 35.23 0 0 0 2.32-4.99c.4-1.2.62-2.09.36-2.6-.26-.48-1.05-.7-2.7-.62-10.36.49-19.48 1.13-27.67 3.87-8.17 2.73-15.43 7.55-22.12 16.39-2.5 3.3-4.34 6.6-5.27 9.5-.61 1.91-.82 3.63-.54 5.02.27 1.35 1 2.4 2.27 3.01.7.34 1.57.56 2.62.63 9.06.62 20.94.74 30.52-2.38 9.5-3.1 16.74-9.4 16.69-21.6-.02-2.68-.86-4.64-2.3-5.98-1.73-1.6-4.34-2.33-7.45-2.32-3.15.02-6.8.78-10.54 2.16-9.64 3.53-19.9 11.05-24.05 20m44.97-14.15v.28c.06 12.57-7.37 19.04-17.13 22.22-9.67 3.15-21.63 3.03-30.76 2.41a7.67 7.67 0 0 1-2.85-.7 4.67 4.67 0 0 1-2.62-3.46c-.3-1.5-.08-3.32.56-5.33v-.02c.96-2.96 2.84-6.33 5.37-9.68 6.77-8.96 14.14-13.84 22.43-16.6 8.26-2.77 17.43-3.42 27.85-3.9 1.93-.1 2.9.23 3.28.96.38.7.14 1.73-.32 3.1a35.78 35.78 0 0 1-2.36 5.08 63.54 63.54 0 0 1-3.45 5.64"/><path id="cryiaV" d="M224.25 978.74a.32.32 0 1 1 .64-.02 9.2 9.2 0 0 1-.61 3.63 5.94 5.94 0 0 1-1.87 2.61.32.32 0 1 1-.38-.51 5.3 5.3 0 0 0 1.65-2.33c.43-1.08.62-2.3.57-3.38"/><path id="cryiaW" d="M218.48 987.8a.32.32 0 1 1 .64-.02c.05 1.22-1.59 2.72-3.72 4.1-3 1.92-7.02 3.66-8.5 3.91a.32.32 0 0 1-.1-.63c1.41-.24 5.31-1.93 8.25-3.82 1.96-1.27 3.47-2.58 3.43-3.54"/><path id="cryiaX" d="M276.37 972.42c-8 2.82-7.23 11.74-24 18.58-13.56 5.53-26.1 1.52-18.92 1.52 17.78 0 33.17-11.07 42.05-25.9 4.91-8.2 12.4 1.74.87 5.8"/><path id="cryiaY" d="M292.96 979.1c-2.11-3.13-10.33-2.68-13.6.3-4.35 3.95-3.39 6.84-9.8 9.51-1.63.68-1.11 2.7 4.82-.45 5.45-2.89 11.18-6.85 17.44-6.67.64.02 2.03-1.37 1.14-2.68"/><path id="cryiaZ" d="M287.5 976.27c.14.1.2.29.1.44a.32.32 0 0 1-.43.11c-.34-.2-.72-.4-1.1-.55a2.32 2.32 0 0 0-1.12-.15.32.32 0 0 1-.36-.28.32.32 0 0 1 .28-.36c.48-.07.96.03 1.42.2.43.15.84.38 1.2.6"/><path id="cryiba" d="M282.24 976.1c.17-.02.33.1.36.28.02.17-.1.33-.27.36-3.56.5-5.28 3.01-6.94 5.44-1.06 1.56-2.1 3.08-3.58 4.09a.32.32 0 0 1-.36-.53c1.38-.94 2.39-2.41 3.41-3.92 1.74-2.54 3.54-5.17 7.38-5.72"/><path id="cryibb" d="M270.37 992.4a.32.32 0 0 1 .58.26 8.3 8.3 0 0 0-.4 4.29c.22 1.63.75 3.36 1.59 4.8a.32.32 0 0 1-.56.33 13.8 13.8 0 0 1-1.66-5.05 8.93 8.93 0 0 1 .45-4.63"/><path id="cryibc" d="M276 992.2c-1.61 4.2-.35 8.52 4.54 7.9 6.75-.86 6.6-7.22 2.83-10.02-2.54-1.87-6.06-1.25-7.36 2.12"/><path id="cryibd" d="M278.58 990.27a.32.32 0 0 1-.28-.57 5.81 5.81 0 0 1 3.75-.67c.93.18 1.7.66 2.27 1.28.57.6.95 1.37 1.13 2.14.22.92.15 1.86-.23 2.59a.32.32 0 1 1-.56-.3 3.1 3.1 0 0 0 .17-2.15 4.18 4.18 0 0 0-.98-1.85 3.54 3.54 0 0 0-1.92-1.09 5.2 5.2 0 0 0-3.35.62"/><path id="cryibe" d="M279.5 995.32c.95-.65 2.6-2.06 1.73-3.42-2.13-3.3-6.17 6.45-1.73 3.42"/><path id="cryibf" d="M282.84 991.91a.32.32 0 0 1 .61-.18c.56 1.79.42 3.17-.17 4.26a6.05 6.05 0 0 1-2.9 2.45.32.32 0 0 1-.27-.58 5.45 5.45 0 0 0 2.6-2.17c.52-.95.63-2.17.13-3.78"/><path id="cryibg" d="M268.25 980.54c-4.37 5.98.17 4.62 4.4 1.3 12.41-9.77.87-8.52-4.4-1.3"/><path id="cryibh" d="M258.63 995.43c6.03.59 9.71-1.77 14.16-4.62 4.6-2.95 10-6.4 19.59-7.77l.6-.1c1.13-.17 3.3-.52 4.3-.56-.58-3.2-2.8-5.58-5.64-7.16a20.4 20.4 0 0 0-12.01-2.3c-7.81 1.1-11.55 8.02-14.8 14.01-1.97 3.65-3.76 6.96-6.2 8.5m14.5-4.08c-4.8 3.07-8.72 5.6-15.6 4.59a.32.32 0 0 1-.08-.61c2.72-1.13 4.66-4.7 6.82-8.7 3.31-6.12 7.14-13.2 15.27-14.34 3.68-.52 8.58.23 12.41 2.37 3.11 1.73 5.52 4.38 6.03 8v.14a.32.32 0 0 1-.4.21c-.35-.1-3.18.36-4.5.57l-.61.1c-9.45 1.33-14.79 4.76-19.33 7.67"/><path id="cryibi" d="M208.57 959.03a.2.2 0 0 1-.23-.14.2.2 0 0 1 .13-.24c2.48-.66 4.08-.78 6.18-.93 1.8-.13 3.96-.28 7.35-.83 2.05-.33 4.18-.54 5.87-.4 1 .09 1.84.3 2.44.66.63.4 1 .96.99 1.74 0 .33-.07.69-.21 1.09a.2.2 0 0 1-.25.12.2.2 0 0 1-.12-.25c.13-.36.2-.68.2-.96 0-.64-.3-1.1-.81-1.4a5.3 5.3 0 0 0-2.27-.61 25.4 25.4 0 0 0-5.78.39c-3.42.55-5.58.7-7.38.84-2.08.14-3.66.26-6.1.92"/><path id="cryibj" d="M274.48 938.8a.2.2 0 0 1 .05-.27.2.2 0 0 1 .27.05c.63.92 2.49 4.28 3.84 7.14.93 1.95 1.63 3.69 1.57 4.32a.2.2 0 1 1-.38-.03c.05-.56-.63-2.23-1.53-4.13a74.36 74.36 0 0 0-3.82-7.08"/><path id="cryibk" d="M283.05 963.17c0-.1.09-.19.2-.19.1 0 .19.09.19.2v.95c.03 1.3.06 3.1-.09 3.8v.01l-.05.25c-.13.69-.37 1.97-1 2.12a.2.2 0 0 1-.1-.38c.4-.09.61-1.21.72-1.8l.05-.27v-.01c.15-.66.12-2.44.1-3.71l-.02-.97"/><path id="cryibl" d="M271.63 958.87c0-.1.09-.19.2-.19.1 0 .19.09.19.2 0 3.11-.76 6.42-1.95 9.63a48.17 48.17 0 0 1-5.49 10.42 31.5 31.5 0 0 1-12.48 10.67c-5.29 2.52-11.25 3.62-17.5 3.62a.2.2 0 0 1 0-.38c6.2 0 12.1-1.1 17.33-3.59a31.11 31.11 0 0 0 12.33-10.54 47.77 47.77 0 0 0 5.45-10.34 27.86 27.86 0 0 0 1.92-9.5"/><path id="cryibm" d="M231.24 969.8a.2.2 0 0 1-.26.05.2.2 0 0 1-.05-.27l.14-.2c1.13-1.62 2.37-3.4 2.37-4.73 0-1.19-1.08-2.03-4.4-2.03-3.87 0-10.08.51-15.69 1.57-4.22.8-8.1 1.9-10.35 3.33a.2.2 0 1 1-.2-.32c2.3-1.47 6.21-2.59 10.48-3.39a94.34 94.34 0 0 1 15.77-1.57c3.6 0 4.78 1 4.78 2.41 0 1.44-1.28 3.28-2.44 4.94z"/><path id="cryibn" d="M220.75 979.92c0-.1.09-.19.2-.19.1 0 .18.09.18.2 0 1.5-.65 2.96-1.6 4.25a16.22 16.22 0 0 1-4.45 3.97l-.14.09c-.18.12-.4.26-.62.3a.2.2 0 1 1-.07-.38c.15-.02.33-.14.48-.24l.15-.1c1.47-.9 3.15-2.26 4.34-3.86a6.92 6.92 0 0 0 1.53-4.04"/><path id="cryibo" d="M211.03 989.82a.2.2 0 1 1 .22.31c-2.82 2.02-8.63 3.46-13.4 3.36-1.84-.04-3.52-.31-4.84-.86-1.34-.56-2.3-1.41-2.66-2.62-.28-.95-.18-2.1.42-3.49.5-1.18 1.2-2.23 2.05-3.17.9-1 1.96-1.85 3.12-2.55a.2.2 0 0 1 .26.06.2.2 0 0 1-.06.27 13.72 13.72 0 0 0-3.04 2.48c-.8.9-1.49 1.92-1.98 3.06a4.77 4.77 0 0 0-.4 3.23c.31 1.08 1.2 1.86 2.44 2.38 1.27.53 2.9.79 4.69.82 4.7.1 10.41-1.3 13.18-3.28"/><path id="cryibp" d="M185.71 991.42c0-.1.09-.19.2-.19.1 0 .18.09.18.2 0 3.64 2.8 4.52 6.1 4.52 1.73 0 3.6-.24 5.26-.45a54.3 54.3 0 0 1 2.59-.3c.1 0 .2.07.2.18.01.1-.07.2-.17.2-.77.06-1.64.18-2.57.3-1.68.21-3.57.46-5.31.46-3.5 0-6.48-.96-6.48-4.92"/><path id="cryibq" d="M266.46 987.62c0-.1.09-.19.2-.19.1 0 .19.09.19.2 0 .13-.14.39-.3.73-.37.69-.92 1.76-.7 2.35.21.56 1.22.7 4.01-.34a25.4 25.4 0 0 0 4.73-2.7c2.02-1.33 4.17-2.76 6.57-3.58l.66-.23h.01a40.04 40.04 0 0 1 6.89-1.93c.1-.01.2.06.22.16a.2.2 0 0 1-.16.22 39.8 39.8 0 0 0-6.82 1.91h-.02l-.66.23c-2.35.81-4.48 2.22-6.48 3.54-1.68 1.12-3.26 2.16-4.8 2.74-3.07 1.15-4.22.88-4.5.11-.29-.74.31-1.9.7-2.66.15-.29.26-.51.26-.56"/><path id="cryibr" d="M197.63 1001.51c-2.34 4.5.72 8.7-1.9 8.48-1.4-.11-3.97-8.56.94-8.56.14 0 .95.1.96.08"/><path id="cryibs" d="M273.4 992.17c.44-1.54 1.49.25 1.49 2.21 0 4.39 4.88 7.8.22 7.63-1.4-.04-4.75-5.47-1.83-9.55.1-.15.08-.15.12-.3"/><path id="cryibt" d="M275.88 992.34a.32.32 0 0 1 .61.17c-.61 2.2-.5 3.86.05 5 .34.69.84 1.18 1.43 1.5.59.31 1.28.44 1.98.39a5.1 5.1 0 0 0 3.37-1.74.32.32 0 0 1 .47.43 5.74 5.74 0 0 1-3.8 1.95 4.28 4.28 0 0 1-2.32-.47c-.7-.37-1.3-.97-1.7-1.79-.61-1.26-.76-3.07-.1-5.44"/><path id="cryibu" d="M197.57 999.96a.32.32 0 0 1 .61.2c-.74 2.3-.7 4.1-.21 5.37.31.8.8 1.4 1.4 1.8.61.38 1.32.57 2.06.57a4.9 4.9 0 0 0 3.22-1.35.32.32 0 0 1 .43.47c-1.1 1-2.4 1.5-3.64 1.51-.87.01-1.7-.21-2.4-.67a4.31 4.31 0 0 1-1.67-2.1c-.54-1.4-.59-3.33.2-5.8"/><path id="cryibv" d="M220.7 951.16c.11 0 .2.09.2.2 0 .1-.09.18-.2.18l-.57.02c-.91.04-2.14.1-2.73-.39a.2.2 0 0 1 .25-.3c.47.4 1.62.35 2.46.31l.6-.02"/><path id="cryibw" d="M235.68 889.74c-4 2.86-2.71 3.1-11.22 1.63-5-.85-13.1 6-9.49 11.5 2.15 3.26 22.17-7.82 24.62-14.43 1.47-3.96-3.72 1.16-3.9 1.3"/><path id="cryibx" d="M231.9 895.35c-1.36-2.55-3.8-3.19-6.34-2.71-1.9.36-3.85 1.34-5.46 2.61-1.59 1.27-2.83 2.83-3.32 4.35a3.5 3.5 0 0 0 1.44 4.24c.14.1.18.3.08.44-.1.14-.3.18-.45.08a4.1 4.1 0 0 1-1.67-4.96c.52-1.64 1.84-3.3 3.53-4.65a13.57 13.57 0 0 1 5.73-2.74c2.78-.52 5.47.18 7 2.99 4.53-3.03 8.37-6.05 8.53-7.82.02-.17.18-.3.35-.29.18.02.3.17.29.35-.32 3.51-12.75 10.9-19.56 14.94l-1.4.83a.32.32 0 0 1-.32-.54l1.4-.83c2.84-1.7 6.68-3.98 10.18-6.29"/><path id="cryiby" d="M195.3 1005.63a.2.2 0 1 1 0 .38c-5.22.07-10.92.82-16.87 1.6-6.53.86-13.37 1.76-20.26 1.86a.2.2 0 0 1-.19-.2c0-.1.08-.19.19-.19 6.86-.1 13.69-.99 20.2-1.84 5.97-.79 11.68-1.54 16.93-1.61"/><path id="cryibz" d="M263.33 1000.17a.32.32 0 1 1 .01.64c-3.05.08-7.73.5-12.24 1.15-3.8.54-7.46 1.24-9.92 2.02a.32.32 0 0 1-.2-.61c2.5-.79 6.2-1.5 10.03-2.04 4.53-.65 9.24-1.08 12.32-1.16"/><path id="cryibA" d="M262.27 1003.09a.32.32 0 1 1-.11.62c-.27-.04-1.24.08-2.4.27-1.8.28-4.04.73-4.8.9a.32.32 0 0 1-.14-.62c.76-.17 3-.62 4.85-.91 1.21-.2 2.26-.33 2.6-.26"/><path id="cryibB" d="M135.06 994.48c.12.13.1.02.14.12 2.03 5.4-4.11 6.58-5.95 5.48-6.22-3.7 3-8.8 5.8-5.6m23.59-4.25c2.88-.74 7.74-.64 7.74 2.53 0 2.33 3.46 5.92-.44 7.3-3.03 1.08.3 1.35-2.24 2.33-7.02 2.7-4.97-4.05-5.71-4.23-5.4-1.32-4.3-6.66.65-7.93m-13.08 2.65c1.24.35 5.26-1.37 4.99 1.3-.35 3.4 2.02 6-.97 7.26-11.67 4.95-10.43-10.34-4.02-8.56"/><path id="cryibC" d="M163.66 995.93a.2.2 0 0 1-.14-.35c1.49-.6 2.09-1.56 2.12-2.52a2.97 2.97 0 0 0-.67-1.91 2.98 2.98 0 0 0-1.7-1.1c-.9-.19-1.93.15-2.78 1.36l-.03.07a.2.2 0 1 1-.36-.14l.03-.08a.2.2 0 0 1 .03-.05c.96-1.38 2.14-1.75 3.2-1.53.74.16 1.42.62 1.9 1.23.5.62.79 1.39.76 2.16-.03 1.1-.7 2.2-2.36 2.86"/><path id="cryibD" d="M159.86 992.84c.08.06.1.18.04.27a.2.2 0 0 1-.27.04c-1.14-.82-2.28-.74-3.12-.21a3.09 3.09 0 0 0-1.43 2.51c0 .99.53 1.98 1.88 2.56.1.04.14.16.1.25a4.4 4.4 0 0 0-.41 2.6c.12.56.4 1 .78 1.3.4.32.9.51 1.46.57.85.08 1.84-.14 2.78-.69a.2.2 0 1 1 .2.33 5.1 5.1 0 0 1-3.01.74 3.12 3.12 0 0 1-1.67-.64 2.59 2.59 0 0 1-.92-1.53 4.64 4.64 0 0 1 .37-2.66c-1.4-.66-1.95-1.75-1.94-2.83a3.46 3.46 0 0 1 1.6-2.84c.97-.6 2.26-.7 3.56.23"/><path id="cryibE" d="M165.67 996.62a.2.2 0 1 1 .21-.32 2.8 2.8 0 0 1 1.18 2.1c.05.48 0 .97-.12 1.4-.13.43-.35.81-.65 1.08-.33.3-.74.44-1.23.36a.19.19 0 0 1-.16-.21.2.2 0 0 1 .22-.16c.36.05.67-.06.92-.28.24-.21.42-.53.53-.9.11-.39.15-.82.11-1.24a2.43 2.43 0 0 0-1-1.83"/><path id="cryibF" d="M148.94 996.81a.2.2 0 0 1-.31-.21c1.02-1.5 1.19-2.54.9-3.2-.23-.52-.75-.82-1.38-.94a4 4 0 0 0-2.06.23c-.95.36-1.7 1.07-1.63 2a.2.2 0 0 1-.26.2c-.55-.23-1.04-.04-1.4.38-.19.2-.34.47-.44.77-.11.3-.18.62-.2.96-.04 1 .4 2.08 1.55 2.58.1.04.14.16.1.25-.22.53-.28 1-.2 1.4.07.37.25.7.5.97s.59.5.97.66c.7.3 1.55.4 2.34.24 1.53-.29 2.27-1 2.47-1.83.1-.4.07-.84-.05-1.26a3.46 3.46 0 0 0-.65-1.2c-.7-.86-1.81-1.4-2.88-1.05a.2.2 0 0 1-.12-.36c1.24-.4 2.5.2 3.3 1.17.32.4.58.86.72 1.33.14.49.17.99.05 1.46-.24.96-1.06 1.8-2.75 2.12h-.02a4.5 4.5 0 0 1-2.57-.27c-.42-.18-.8-.44-1.1-.75-.3-.33-.5-.71-.59-1.15-.08-.44-.04-.93.16-1.46a2.95 2.95 0 0 1-1.6-2.86c0-.38.08-.75.2-1.08.13-.34.3-.65.51-.9.42-.47.96-.72 1.58-.56.07-1 .87-1.73 1.87-2.12a4.38 4.38 0 0 1 2.27-.24c.74.13 1.37.5 1.66 1.15.34.78.17 1.95-.94 3.57m-1.51 6.3l.22.14a.2.2 0 0 0-.22-.15"/><path id="cryibG" d="M133.72 998.34a.2.2 0 0 1 .14-.36c.54.22.88 0 1.03-.39.14-.34.15-.8.05-1.28a2.7 2.7 0 0 0-.65-1.28c-.66-.68-1.77-.82-3.29.64-1.61 1.56-1.13 3.21-.03 4.36.5.52 1.14.94 1.77 1.2a2.7 2.7 0 0 0 1.66.21c.62-.17.94-.8.58-2.07a.19.19 0 0 1-.11-.25.2.2 0 0 1 .24-.12c.07.03.12.06.16.1v.01a.4.4 0 0 1 .08.15c.44 1.54-.02 2.32-.84 2.55-.53.15-1.22.05-1.91-.23a5.65 5.65 0 0 1-1.91-1.29c-1.24-1.28-1.77-3.14.04-4.9 1.73-1.66 3.04-1.45 3.83-.63.38.4.63.93.75 1.47.12.54.1 1.09-.06 1.5-.23.6-.74.92-1.53.61"/><path id="cryibH" d="M150.54 1009.7c.1 0 .19.11.18.25 0 .13-.08.24-.19.24l-3.8-.09c-.1 0-.2-.1-.19-.24 0-.14.09-.24.2-.24z"/><path id="cryibI" d="M248.72 914.08c-2.62-3.75-11.03-3.14-6.82 11.02 1.41 4.74-4.7 10.2 10.5 9.35 5.06-.28 3-16.28.77-20.03-.78-2.07-3.36-3.36-4.45-.34"/><path id="cryibJ" d="M246.59 902.65a.32.32 0 1 1-.12-.63c1.22-.23 2.53-.7 3.68-1.2 1.61-.71 2.9-1.49 3.23-1.82a.32.32 0 0 1 .55.24 10.45 10.45 0 0 1-2.47 5.69c-1.3 1.53-3 2.7-4.88 3a.32.32 0 0 1-.1-.63 7.7 7.7 0 0 0 4.5-2.78 10.1 10.1 0 0 0 2.21-4.59c-.64.42-1.64.97-2.78 1.47-1.19.52-2.54 1-3.82 1.25"/><path id="cryibK" d="M239.99 904.38a.32.32 0 0 1-.58.27c-.08-.18-.27-.28-.51-.32-.38-.06-.87.01-1.39.18a5.9 5.9 0 0 0-1.57.8c-.72.51-1.25 1.17-1.23 1.81a.32.32 0 0 1-.64.02c-.03-.88.62-1.72 1.5-2.35.53-.38 1.15-.7 1.74-.89a3.7 3.7 0 0 1 1.7-.2c.44.08.8.3.98.68"/><path id="cryibL" d="M229.43 894.67a.2.2 0 0 1-.16.35 5.02 5.02 0 0 0-1.5-.47c-.52-.05-1.1.03-1.9.35a.2.2 0 0 1-.15-.36 4.38 4.38 0 0 1 2.09-.37c.57.05 1.06.26 1.62.5"/><path id="cryibM" d="M222.87 895.34c.1-.03.2.03.23.14a.2.2 0 0 1-.14.23 4.87 4.87 0 0 0-2.73 1.98 6.27 6.27 0 0 0-1.16 3.54.2.2 0 0 1-.38 0c0-1.3.45-2.66 1.23-3.76a5.24 5.24 0 0 1 2.95-2.13"/><path id="cryibN" d="M224.29 919.15c-1.38 7.47-2.71 18.48 5.95 22.48 6.88 3.17-.88-5.3 8.8 2.47 5.55 4.45 5.56-2.7 7.72-.27.04.04 5.93 2.77 5.21-3.46 2.86-.88 10.1 1.55 7.71-4.23-.02-.05 13.35-5.68 5.86-6.79-11.4-1.69-13.18 4.4-28.62-2.56-9.02-4.07-5.84-14.76-12.68-7.85z"/><path id="cryibO" d="M249.5 939.58a.32.32 0 0 1 .35-.54c2.42 1.61 3.6 2.85 3.89 3.72.26.78-.06 1.3-.8 1.56a5.7 5.7 0 0 1-2.65.04c-3.41-.57-8.73-3.04-11.73-7.29a.32.32 0 1 1 .52-.37c2.9 4.1 8.02 6.48 11.32 7.03 1 .17 1.82.16 2.32-.02.37-.13.54-.38.41-.75-.25-.74-1.35-1.86-3.63-3.38"/><path id="cryibP" d="M242.83 941.2a.32.32 0 0 1 .38-.51c1.87 1.39 2.77 2.63 2.91 3.53.12.7-.17 1.2-.77 1.46-.52.23-1.3.24-2.26 0-2.76-.73-7.28-3.66-11.94-10.15a.32.32 0 0 1 .52-.38c4.56 6.35 8.93 9.21 11.58 9.9.82.22 1.45.22 1.85.05.3-.14.45-.4.4-.78-.13-.75-.95-1.84-2.67-3.12"/><path id="cryibQ" d="M234.74 939.95a.32.32 0 0 1 .56-.3c.4.75.51 1.35.4 1.8-.09.38-.34.65-.7.8-.33.12-.75.14-1.24.06-1.32-.23-3.25-1.24-5.2-3.06-.64-.59-1.37-1.3-2.11-2.16a22.5 22.5 0 0 1-2.2-2.97 16.2 16.2 0 0 1-2.27-9.3c.21-2.6 1.24-5.29 3.7-7.58a.32.32 0 0 1 .44.46 10.81 10.81 0 0 0-3.5 7.18 15.52 15.52 0 0 0 2.17 8.9 21.9 21.9 0 0 0 2.14 2.89c.72.83 1.44 1.53 2.07 2.12 1.85 1.73 3.65 2.68 4.86 2.89.38.06.68.05.9-.03a.49.49 0 0 0 .32-.36c.08-.3-.03-.74-.34-1.34"/><path id="cryibR" d="M221.56 946.4c.1 0 .2.07.2.18.01.1-.07.2-.17.2-.08 0-.24.05-.45.11-.48.14-1.2.35-1.97.35a.2.2 0 0 1-.19-.2c0-.1.09-.19.2-.19.7 0 1.4-.2 1.86-.33.23-.06.4-.11.52-.12"/><path id="cryibS" d="M220.68 937.78a.2.2 0 0 1 .37.1c-.06.25-.23.7-.42 1.08-.14.3-.3.57-.46.7a.2.2 0 1 1-.26-.28c.11-.1.25-.33.37-.58.18-.37.34-.8.4-1.02"/><path id="cryibT" d="M224.43 940.62a.2.2 0 1 1 .32.2c-.41.64-.53.72-.8.92l-.4.33a.2.2 0 0 1-.24-.3c.18-.16.31-.26.41-.33.23-.18.33-.25.71-.82"/><path id="cryibU" d="M230.36 946.29a.2.2 0 0 1-.1.37 3.9 3.9 0 0 0-1.4-.1c-.39.05-.74.16-.95.35a.2.2 0 0 1-.26-.29c.27-.25.7-.38 1.16-.43a4.35 4.35 0 0 1 1.55.1"/><path id="cryibV" d="M241.38 916a.2.2 0 1 1 .27-.26c.83.84.9 1.55 1 2.51l.09.7a.2.2 0 1 1-.38.05l-.09-.7c-.09-.9-.16-1.55-.9-2.3"/><path id="cryibW" d="M243.13 922.81c0-.1.11-.19.25-.19s.26.09.26.2v.16c0 .62 0 .95-.11 1.63-.02.11-.15.18-.29.17-.14-.01-.23-.1-.22-.21.11-.68.11-.99.11-1.59z"/><path id="cryibX" d="M245.3 915.34a.2.2 0 0 1-.07-.27.2.2 0 0 1 .26-.06c.1.05.28.2.41.35.11.13.2.28.18.4 0 .11-.1.2-.2.18a.2.2 0 0 1-.18-.2.4.4 0 0 0-.09-.13c-.1-.12-.24-.23-.32-.27"/><path id="cryibY" d="M254.44 918.48c5.55.4 10.64-.48 15.8-2.44 3.75-1.41 1.2 6.3-2.51 6.41-.13 0 2.44 1.6-1.49 3.4-2.35 1.07-6.98-.68-8.43 1.28-.06.07-.9.48-.97.5-2.14.36-.87-.15-1.1-3.97-.05-.63-1.78-5.21-1.3-5.18"/><path id="cryibZ" d="M255.1 920.1a.32.32 0 0 1 .06-.63l.86.09c3.37.33 5.83.57 14.94-2.2.47-.14.83-.15 1.08-.06.23.09.38.25.44.48.05.18.04.4-.04.63-.18.52-.69 1.2-1.47 1.87-.98.83-2.41 1.66-3.98 2.2a10.8 10.8 0 0 1-4.2.66.32.32 0 1 1 .04-.64c1.3.09 2.67-.17 3.95-.62 1.5-.52 2.85-1.3 3.77-2.09a4.2 4.2 0 0 0 1.28-1.58c.04-.12.05-.2.04-.27 0-.02-.02-.03-.05-.04-.13-.05-.35-.03-.67.07-9.24 2.8-11.76 2.56-15.2 2.22l-.85-.08"/><path id="cryica" d="M283.48 925c2.27 8.89-3.02 11.64-7.91 5.93-6.74-7.86 4.7-18.53 7.9-5.93m-4.96-2.68c-3.72-.43 1.28 7.07 2.05 3.68.36-1.57-.64-3.51-2.05-3.68"/><path id="cryicb" d="M266.91 922.68a.32.32 0 1 1 .04-.64c1.1.07 1.82.29 2.24.58.31.23.47.5.49.8v.02c.02.28-.09.58-.3.87a5.94 5.94 0 0 1-2.29 1.64c-1.3.6-2.93 1.06-4.5 1.26-1.48.2-2.93.17-4.01-.16a.32.32 0 1 1 .18-.61c1 .3 2.35.32 3.75.14 1.5-.2 3.06-.63 4.32-1.21.96-.45 1.7-.96 2.03-1.43.12-.18.19-.33.18-.47 0-.11-.08-.22-.22-.33-.33-.23-.94-.4-1.9-.46m2.76.76l-.3.33c.17-.01.3-.16.3-.33"/><path id="cryicc" d="M281.53 927.35c0-.1.08-.19.19-.19.1 0 .19.09.19.2 0 .45-.43.9-.97 1.28-.74.5-1.72.89-2.1.89a.2.2 0 0 1 0-.39c.33 0 1.2-.35 1.88-.81.45-.32.8-.67.8-.98"/><path id="cryicd" d="M281.74 930a.2.2 0 1 1 .35.15.46.46 0 0 1-.12.16c-.27.26-1.11.57-1.95.78-.84.21-1.7.33-2.04.19a.41.41 0 0 1-.14-.1.2.2 0 0 1 .28-.26h.01c.25.11 1.02 0 1.8-.2a5.59 5.59 0 0 0 1.8-.71"/><path id="cryice" d="M280.03 927.38a.2.2 0 0 1 .38-.06c.17.99.05 2.5-.41 3.77-.37 1.02-.95 1.88-1.8 2.19a.2.2 0 0 1-.12-.36c.71-.27 1.23-1.04 1.56-1.96.43-1.2.55-2.64.39-3.58"/><path id="cryicf" d="M275.63 923.36a.32.32 0 0 1-.56-.32c.34-.6.75-.99 1.2-1.2.39-.2.8-.25 1.21-.2.4.04.82.19 1.22.41a7.27 7.27 0 0 1 2.71 3.14c.65 1.34 1 2.9.89 4.27-.06.72-.25 1.4-.6 1.97a3.54 3.54 0 0 1-1.54 1.4c-.76.38-1.74.55-2.97.44a.32.32 0 0 1 .06-.64c1.1.1 1.98-.05 2.64-.37.56-.27.98-.67 1.26-1.15a4 4 0 0 0 .5-1.7 7.86 7.86 0 0 0-.81-3.94 6.61 6.61 0 0 0-2.46-2.86c-.32-.19-.65-.3-.96-.34-.3-.03-.6 0-.87.14-.34.16-.65.47-.92.95"/><path id="cryicg" d="M249.33 914.17a.2.2 0 0 1 .1-.25.2.2 0 0 1 .25.1l.04.09c.4.95.6 1.4.55 2.6a.2.2 0 0 1-.38-.02 4.43 4.43 0 0 0-.52-2.43z"/><path id="cryich" d="M250.26 920.83c0-.1.09-.2.2-.19.1 0 .18.09.18.2 0 .26.02.54.04.83.05.74.1 1.5-.27 2.15a.2.2 0 0 1-.26.07.2.2 0 0 1-.07-.26c.31-.56.26-1.25.21-1.93-.02-.3-.04-.59-.03-.87"/><path id="cryici" d="M246.9 918a.2.2 0 1 1 .32-.22c.55.82.54 1.55.53 2.41v.35a.2.2 0 0 1-.38 0v-.35c0-.8.02-1.48-.47-2.2"/><path id="cryicj" d="M247.6 925.33a.2.2 0 0 1 .39-.06c.06.43.1.91.06 1.39-.04.4-.13.79-.29 1.12a.2.2 0 0 1-.35-.17c.15-.28.22-.63.25-.98.04-.45.01-.9-.05-1.3zm.06 1.3z"/><path id="cryick" d="M253.12 926.62c0-.1.1-.19.23-.19s.24.08.24.19v.2c.02.44.05 1.28-.1 1.42a.28.28 0 0 1-.34.01c-.1-.07-.1-.19-.02-.27.03-.02 0-.76 0-1.15z"/><path id="cryicl" d="M255.76 928.7c.24-3.16-.07-6.72-.9-10.3a40.5 40.5 0 0 0-3.89-10.2.32.32 0 0 0-.56.3 39.81 39.81 0 0 1 3.82 10.04c.82 3.52 1.13 7.01.9 10.12-.02.18.1.33.29.34.17.02.33-.12.34-.3m-9.05-26.56a22.43 22.43 0 0 0-6.75-5.2 17.58 17.58 0 0 0-7.66-1.8.32.32 0 0 0 0 .64c2.66.01 5.13.64 7.38 1.74a21.78 21.78 0 0 1 6.55 5.05.32.32 0 0 0 .48-.43m-28.92 1.9c-2.56 5.46-1.6 12.08-.69 18.43.3 2.11.6 4.2.77 6.2.68 8.31-1.07 15.12-15.23 16.27a.32.32 0 0 0-.2.55c3.5 3.74 7.09 6.31 10.83 7.95a28.68 28.68 0 0 0 11.8 2.32 34.7 34.7 0 0 0 14.49-2.98 27.16 27.16 0 0 0 10.6-8.58.32.32 0 0 0-.52-.38 26.52 26.52 0 0 1-10.35 8.38c-4 1.84-8.75 2.9-14.23 2.93-4.04.01-7.87-.67-11.53-2.28a31.86 31.86 0 0 1-10.17-7.33c14.1-1.36 15.85-8.37 15.15-16.9-.16-2.01-.47-4.11-.77-6.24-.91-6.26-1.85-12.78.63-18.07a.32.32 0 0 0-.58-.27"/><path id="cryicm" d="M265.16 934.27c-1.43-1.23-7.62 1.41-3.6 5.84 1.87 2.07 9.34.27 5.4-5.05-.4-.55-1.75-.75-1.8-.79"/><path id="cryicn" d="M236.93 925.8a.32.32 0 1 1 .48-.41c2.3 2.65 6.07 4.04 10.33 4.7 4.29.65 9.07.56 13.36.25 2.3-.17 3.7.14 4.34.67.57.48.63 1.11.24 1.78a5.1 5.1 0 0 1-1.96 1.7c-2.84 1.57-8.27 2.64-14.3.64a.32.32 0 0 1 .2-.61c5.84 1.94 11.06.92 13.79-.6a4.51 4.51 0 0 0 1.72-1.45c.21-.37.2-.72-.1-.97-.53-.44-1.77-.68-3.89-.52-4.32.31-9.15.4-13.5-.26-4.39-.68-8.3-2.13-10.71-4.91"/><path id="cryico" d="M258.02 936.15a.32.32 0 1 1 .11-.62c1.55.28 2.43.76 2.77 1.31.32.53.2 1.08-.29 1.59-.4.43-1.1.83-2 1.14-2.84.99-7.9 1.12-12.81-1.58a.32.32 0 1 1 .3-.56c4.73 2.6 9.6 2.48 12.3 1.54.8-.28 1.4-.62 1.75-.98.27-.29.35-.57.2-.82-.25-.4-.98-.77-2.33-1.02"/><path id="cryicp" d="M263.87 934.1c.92 0 1.76.35 2.37.9.62.58 1 1.36 1 2.23 0 .87-.38 1.65-1 2.22-.6.56-1.45.9-2.37.9a3.5 3.5 0 0 1-2.37-.9c-.62-.57-1-1.35-1-2.22 0-.87.38-1.65 1-2.22a3.5 3.5 0 0 1 2.37-.91m1.94 1.38a2.85 2.85 0 0 0-1.94-.74c-.76 0-1.45.28-1.94.74a2.38 2.38 0 0 0-.79 1.75c0 .68.3 1.3.79 1.75.5.46 1.18.74 1.94.74s1.44-.28 1.94-.74c.48-.45.79-1.07.79-1.75 0-.68-.3-1.3-.8-1.75"/><path id="cryicq" d="M264.16 936.21a.32.32 0 1 1 0-.64h.02c.39 0 .71.24.94.57.2.3.32.68.33 1.03v.05c0 .6-.29.97-.68 1.15-.18.09-.38.13-.58.13-.2 0-.4-.03-.59-.09-.49-.17-.9-.54-.94-1.06a.32.32 0 0 1 .64-.06c.02.24.24.42.5.51.13.04.25.07.38.06a.8.8 0 0 0 .32-.06c.18-.09.31-.27.31-.58v-.03c0-.23-.09-.5-.22-.7-.12-.16-.26-.28-.41-.28z"/><path id="cryicr" d="M265.69 929.62a.32.32 0 0 1-.64-.04c.02-.25.05-.5.11-.74v-.02a7.77 7.77 0 0 1 3.18-4.32 9.21 9.21 0 0 1 5.82-1.74c.42.02.85.08 1.27.18.16.03.26.17.25.32 0 .65.1 2.53.54 4.88.26 1.45.65 3.07 1.22 4.68a.32.32 0 0 1-.16.4c-1.35.7-3 1.25-4.77 1.66-2 .46-4.16.74-6.21.86a.32.32 0 1 1-.04-.64c2.02-.12 4.14-.39 6.1-.84 1.62-.37 3.13-.87 4.39-1.5a33.08 33.08 0 0 1-1.7-9.25c-.31-.06-.62-.1-.93-.12a8.57 8.57 0 0 0-5.4 1.63 7.12 7.12 0 0 0-2.93 3.95c-.06.22-.09.44-.1.65m-.53-.8l.38-.23a.32.32 0 0 0-.38.23"/><path id="cryics" d="M207.65 1019.95a.2.2 0 0 1 0-.38c3.39 0 6.85-.21 10.42-.43 3.82-.24 7.77-.48 11.89-.48h.7a.2.2 0 1 1 0 .38h-.7c-4.12 0-8.06.25-11.87.48-3.58.22-7.05.43-10.44.43"/><path id="cryict" d="M213.6 1017.64a.2.2 0 0 1 .02-.38 69.6 69.6 0 0 0 5.5-.23c2.05-.13 4.2-.27 5.91-.27a.2.2 0 0 1 0 .38c-1.71 0-3.85.14-5.9.27-2.14.14-4.18.27-5.52.23"/><path id="cryicu" d="M227.71 985.2a.32.32 0 0 1 .63.13c-.3 1.54.1 2.79 1.04 3.73 1.05 1.05 2.77 1.74 4.9 2.04 2.18.3 4.78.2 7.56-.32 8.1-1.54 17.7-6.72 22.7-16.14a53.9 53.9 0 0 0 5.85-19.57c.7-6.79.14-13.63-1.78-19.74a.32.32 0 0 1 .61-.19 50.03 50.03 0 0 1 1.8 20 54.55 54.55 0 0 1-5.91 19.8c-5.1 9.61-14.9 14.9-23.15 16.47a24.3 24.3 0 0 1-7.76.32c-2.28-.32-4.12-1.07-5.27-2.22a4.52 4.52 0 0 1-1.22-4.3"/><path id="cryicv" d="M220.04 906.36a.2.2 0 0 1 .3.23c-.29.4-.57 1.07-.77 1.76-.21.74-.34 1.51-.33 2.06a.2.2 0 0 1-.38 0c-.02-.57.12-1.39.34-2.16.22-.74.52-1.45.84-1.9"/><path id="cryicw" d="M218.65 913.67a.2.2 0 0 1 .38 0v.48c0 2.48 0 5.25.67 7.56a.2.2 0 0 1-.37.1c-.69-2.36-.68-5.15-.68-7.66z"/><path id="cryicx" d="M225.14 923.37a.2.2 0 1 1 .37.09 11.1 11.1 0 0 0-.21 4.15c.19 1.4.64 2.85 1.34 4.4a.2.2 0 0 1-.35.16 16.22 16.22 0 0 1-1.37-4.51c-.2-1.45-.13-2.86.22-4.3"/><path id="cryicy" d="M232.05 930.79c0-.1.08-.2.19-.2.1 0 .19.08.2.19 0 .53.39 1.4.88 2.28a16.86 16.86 0 0 0 2.06 2.96.2.2 0 1 1-.26.28c-.42-.4-1.4-1.74-2.13-3.06a6.46 6.46 0 0 1-.94-2.45"/><path id="cryicz" d="M238.46 932.77a.2.2 0 1 1 .35-.16c.3.69.64 1.28 1.11 1.84.47.56 1.08 1.1 1.91 1.64a.2.2 0 0 1-.2.32 8.96 8.96 0 0 1-2-1.71 7.9 7.9 0 0 1-1.17-1.93"/><path id="cryicA" d="M242.72 933.11a.2.2 0 1 1 .3-.24l.05.06c1.05 1.28 1.78 2.15 3.68 2.37.1.01.18.1.17.21a.2.2 0 0 1-.21.17c-2.06-.23-2.82-1.16-3.93-2.5l-.01-.01z"/><path id="cryicB" d="M229.17 925.2c0-.11.08-.2.19-.2.1 0 .19.09.19.2v.61a8.1 8.1 0 0 0 .29 2.64.2.2 0 0 1-.14.23.2.2 0 0 1-.23-.13c-.32-1.25-.32-1.76-.3-2.74v-.62"/><path id="cryicC" d="M234.72 927.86c0-.1.09-.2.2-.19.1 0 .19.09.18.2a8.6 8.6 0 0 0 .66 2.24.2.2 0 1 1-.34.16c-.2-.4-.37-.87-.5-1.3-.13-.45-.2-.86-.2-1.11"/><path id="cryicD" d="M229.6 917.4a.2.2 0 0 1 .28.26c-.37.42-.73.88-1.01 1.45a4.78 4.78 0 0 0-.47 2.1.2.2 0 0 1-.38 0c0-.93.2-1.66.5-2.27.3-.6.69-1.09 1.07-1.53"/><path id="cryicE" d="M284.36 920.63a.2.2 0 0 1-.3-.24c1.4-1.8 5.42-4.08 9.11-6.18 2.42-1.37 4.7-2.66 5.96-3.66a.2.2 0 1 1 .24.3c-1.3 1.02-3.58 2.32-6 3.7-3.67 2.07-7.66 4.33-9 6.08"/><path id="cryicF" d="M287.1 922.18a.2.2 0 0 1-.27-.28c.07-.06 14.52-6.27 25.9-11.1 6.83-2.9 12.57-5.31 13.43-5.61a.2.2 0 0 1 .13.36c-.87.3-6.6 2.7-13.41 5.6a4315.67 4315.67 0 0 0-25.78 11.03"/><path id="cryicG" d="M286.88 927.35a.2.2 0 0 1 0-.38c1.52 0 6.28-.63 11.62-1.42 7.3-1.1 15.66-2.5 18.26-3.04.1-.02.2.05.23.15a.2.2 0 0 1-.15.23c-2.62.55-10.99 1.95-18.29 3.04-5.35.8-10.13 1.42-11.67 1.42"/><path id="cryicH" d="M294.4 929.6c-.1 0-.19-.1-.19-.2 0-.13.09-.22.2-.22 1.81 0 3.7.05 5.57.1 1.81.06 3.6.11 5.38.11.1 0 .2.1.2.21 0 .12-.1.21-.2.21-1.72 0-3.55-.05-5.38-.1-1.85-.05-3.7-.1-5.58-.1"/><path id="cryicI" d="M170.7 976.88a.2.2 0 1 1-.01.39 181.1 181.1 0 0 0-17.92.81c-5.56.51-10.94 1.24-14.56 2.16a.2.2 0 0 1-.1-.37c3.63-.92 9.04-1.66 14.62-2.17 6.61-.6 13.48-.9 17.96-.82"/><path id="cryicJ" d="M161.4 972.95a.2.2 0 0 1 .15.36c-.41.17-1.83.3-3.5.38-2.53.13-5.68.18-6.76.16a.2.2 0 0 1 0-.38c1.08.02 4.21-.03 6.74-.16 1.63-.08 3-.2 3.38-.36"/><path id="cryicK" d="M170.18 962.3a.2.2 0 1 1 .3-.23c1.24 1.58 2.72 2.92 4.23 4.3 1.77 1.6 3.59 3.24 5.11 5.36.42.58 1.83 1.66 2.75 2.37.5.39.86.67.9.77a.2.2 0 0 1-.35.15l-.78-.61c-.94-.73-2.38-1.83-2.83-2.46-1.5-2.08-3.3-3.71-5.06-5.3a35.55 35.55 0 0 1-4.27-4.34"/><path id="cryicL" d="M189.25 959.36a.2.2 0 0 1 .15-.35c.61.26 1.96 1.37 3.27 2.59 1.4 1.29 2.75 2.7 3.13 3.33a.2.2 0 0 1-.07.26.19.19 0 0 1-.26-.06c-.36-.6-1.69-1.98-3.06-3.25-1.28-1.2-2.6-2.28-3.16-2.52"/><path id="cryicM" d="M150.03 897.7c-2.79-.58-6.58.8-5.28 5.08 2.3 7.49.84 2.46-1.93 6.27-1.83 2.53 3.17 17.41 5.56 16.45 8.99-3.63 2.47-.96 2.24-12.8-.02-1.27 1.07-2.09.98-5.97-.01-.51 3.16-6.18-.78-8.51-.18-.1-.62-.5-.79-.53"/><path id="cryicN" d="M156.98 890.84l.26-.04c-7.91 1.13-3.61 2.33-3.61 5.53 0 .62 2.41 12.4 3.07 12.21 8.24-2.3 5.46-.71 2.91-5.18-2.54-4.46 8.38-14.15-.87-12.4-.58.11-1.6-.13-1.76-.12"/><path id="cryicO" d="M176.32 886.88c-1.64-.6-5.7-.45-5.7 2.87 0 .62.81 9.36 1.33 9.36 3.94 0 3.88-5.2 5.75-8.9.98-1.94.2-2.75-1.38-3.33"/><path id="cryicP" d="M172.6 904.57c-8.41 0-9.15 1.41-6.55 9.29 1.66 5-.74 10.47 7.31 7.96 2.92-.9-3.15-2.29-.48-8.23 1.87-4.16 1.68-5.86-.29-9.02"/><path id="cryicQ" d="M186.13 895.34c-.89-.4-8.54-1.02-8.68 2.96-.1 2.68 1.09 12.79 4.4 13.25 7.96 1.1 1.79-2.79 3.81-12.77.2-.97.57-3.4.47-3.44"/><path id="cryicR" d="M199.45 902.3c-.17-.13-7.75-2.1-8.1 1.08-.2 1.69-.44 14.44.72 14.96.52.23 8.01 1.07 8.01.2 0-4.27-3.88-4.17-.79-9.07 2.8-4.42 1.3-6.37.16-7.18"/><path id="cryicS" d="M152.13 954.99a.2.2 0 0 1 0 .38c-.83 0-2.1.24-3.33.48-1 .2-2 .39-2.74.44a.2.2 0 0 1-.02-.39c.71-.04 1.69-.23 2.68-.43 1.26-.24 2.54-.5 3.41-.48"/><path id="cryicT" d="M199.68 956.02a11.8 11.8 0 0 1-.01-.86c0-.35 0-.55-.03-.57h-.01c-.16-.08-.7 0-1.88.2l-.44.07c-.52.08-1.73.2-3 .33-1 .1-2.05.2-2.82.3l-3.15.38c-8.88 1.03-33 3.85-33 3.9v.02l.02.37.03 1.1 10.54-1.25c12.7-1.5 32.08-3.78 33.75-3.99m.62-.86c0 .27 0 .61.03 1.05.01.1-.02.2-.1.26-.17.16-20.87 2.6-34.23 4.17-5.56.66-9.84 1.16-10.84 1.29a.32.32 0 0 1-.32-.17c-.05-.1-.1-1-.12-1.56l-.02-.38c.05-.67 24.54-3.54 33.57-4.59l3.14-.37c.71-.09 1.8-.2 2.84-.3 1.26-.13 2.46-.25 2.96-.33l.44-.07c1.34-.22 1.95-.32 2.3-.13l.02.02c.34.2.34.53.33 1.11"/><path id="cryicU" d="M190.22 957.74a.32.32 0 1 1 .5-.4 131.11 131.11 0 0 0 5.66 5.37.32.32 0 0 1-.36.52 120.53 120.53 0 0 1-5.8-5.49"/><path id="cryicV" d="M206.4 962.38a.2.2 0 0 1-.08.37c-.49-.12-.78-.66-.87-1.3-.04-.3-.04-.62 0-.93.05-.3.13-.6.27-.86.24-.46.62-.76 1.16-.72a.2.2 0 1 1-.04.39c-.35-.03-.61.18-.79.5a3.01 3.01 0 0 0-.22 1.56c.07.5.27.91.58 1"/><path id="cryicW" d="M198.92 932.33c.01.02 2.97 22.64-5.13 21.95-8.76-.76-7.7 2.66-17.88.92-3.68-.63-18.25 6.09-18.65.33-.02-.4-7.7-21.51-8.82-25.66-.25-.93-.64-1.96.04-2.62-.04 1.93 4.74 1.83 6.76.71 3-1.66 2.22 3.13 3.62 1.09 1.28-1.87-4.35-20.36 1.28-16.49 3.43 2.36 3.76-2.5 5.4 3.35 1.1 3.93.83 1.08 1.12 5.91.33 5.41 5.56 5.52 9.62 2.97 1.82-1.15 2.98 6.51 2.55-5.39-.24-6.69.46-.55 5.5-1.94 5.9-1.62 1.26.15 3.91 4.15 1.6 2.41 10.51-2.42 10.51 2.52 0 2.77.17 5.43.17 8.2"/><path id="cryicX" d="M167.5 944.67a.2.2 0 0 1 .38-.02c.03.42.47 2.87 1.14 4.98.28.89.61 1.71.96 2.29.32.52.65.83.96.77l.15-.06a.2.2 0 0 1 .26.07c.06.1.02.2-.07.26a.9.9 0 0 1-.26.1c-.5.1-.96-.28-1.37-.94-.36-.6-.7-1.46-1-2.37a32.36 32.36 0 0 1-1.15-5.08"/><path id="cryicY" d="M184.1 951.05a.2.2 0 0 1 .05-.38c.31.04.62.17.95.3a4 4 0 0 0 3 .24c.1-.03.2.03.24.13a.2.2 0 0 1-.14.24c-1.57.45-2.5.07-3.25-.25-.3-.13-.58-.24-.85-.28"/><path id="cryicZ" d="M146.78 911.37c.13.08.3.12.46.1a.9.9 0 0 0 .37-.1c.1-.06.2-.14.27-.25.08-.13.12-.3.11-.51a.92.92 0 0 0-.09-.35.75.75 0 0 0-.34-.34 1.02 1.02 0 0 0-.86 0 .88.88 0 0 0-.36.33.7.7 0 0 0-.1.3c-.01.12 0 .23.06.35.08.16.24.33.48.47m.49.49c-.25.01-.5-.04-.69-.16-.31-.19-.51-.41-.62-.64a1.04 1.04 0 0 1 .05-1.01c.12-.2.3-.37.53-.47a1.36 1.36 0 0 1 1.2 0c.2.1.4.27.5.51.08.14.12.3.13.5.02.29-.04.53-.16.73-.1.17-.25.3-.42.39-.16.09-.34.14-.52.15"/><path id="cryida" d="M144.74 921.33c-.91-1.86-2.07-5.36-2.91-7.91-.33-1-.61-1.86-.8-2.37a.33.33 0 0 1-.02-.07c0-.15 0-.3.05-.43.27-.83 1.62-1.67 3.3-2.33a20.35 20.35 0 0 1 5.1-1.28c.85-.09 1.6-.06 2.1.1.06.02.12.06.16.12.34.38.87 1.75 1.41 3.39.92 2.75 1.94 6.34 2.1 7.12a.32.32 0 0 1-.3.38c-.8.06-5.34 1.78-7.94 2.77-1.07.4-1.83.7-1.93.7a.32.32 0 0 1-.32-.2m-2.3-8.1c.8 2.43 1.9 5.73 2.77 7.6l1.56-.6c2.37-.9 6.34-2.41 7.76-2.74-.29-1.17-1.19-4.28-2-6.73-.55-1.63-1.03-2.95-1.2-3.11a5.13 5.13 0 0 0-1.81-.07c-1.47.15-3.35.62-4.92 1.24-1.52.6-2.72 1.31-2.93 1.93a.49.49 0 0 0-.02.14l.79 2.34"/><path id="cryidb" d="M143.54 911.14a.2.2 0 0 1 .09-.26.2.2 0 0 1 .25.09c.24.48.48 1.41.75 2.44.35 1.35.75 2.88 1.23 3.8.31.6.65.94 1.01.75h.02c.64-.34 1.41-.68 2.2-.93a8.47 8.47 0 0 1 1.97-.4.2.2 0 0 1 .02.38c-.6.04-1.24.18-1.88.39-.76.24-1.51.57-2.14.9h-.01c-.61.32-1.11-.1-1.53-.9-.5-.97-.9-2.53-1.26-3.89-.26-1.01-.5-1.92-.72-2.37"/><path id="cryidc" d="M145.56 921.07a.32.32 0 0 1 .62-.13c.17.75.57 2.42 1.01 3.56.23.6.44 1.05.53 1.04.29-.02.87-.25 1.65-.57 1.32-.53 3.18-1.28 5.33-1.65.64-.1.75-.68.63-1.4-.16-.93-.7-2.08-1.09-2.95l-.39-.89a.32.32 0 0 1 .6-.22l.37.85c.41.9.96 2.1 1.14 3.1.18 1.08-.04 1.95-1.16 2.14-2.08.36-3.9 1.1-5.2 1.61-.82.34-1.45.6-1.84.62-.44.03-.83-.6-1.16-1.45-.46-1.2-.88-2.89-1.04-3.66"/><path id="cryidd" d="M147.49 921.65a.2.2 0 1 1 .36-.12c.08.23.14.5.2.75h.01c.18.76.38 1.56.86 1.53a.2.2 0 0 1 .03.38c-.8.05-1.04-.9-1.26-1.8v-.02l-.2-.72"/><path id="cryide" d="M149.33 925.23a.2.2 0 0 1 .37.08.8.8 0 0 0 .13.7c.2.25.55.42 1 .53a6 6 0 0 0 1.58.13c1.37-.05 2.78-.43 3.15-.95a.2.2 0 1 1 .31.22c-.44.61-1.98 1.06-3.44 1.11a6.4 6.4 0 0 1-1.7-.14 2.13 2.13 0 0 1-1.2-.66c-.21-.27-.3-.6-.2-1.02"/><path id="cryidf" d="M164.07 953.5c.1.03.17.13.14.23a.2.2 0 0 1-.23.15c-.1-.03-.22-.03-.37-.02-.6.04-1.54.33-2.37.8-.81.45-1.52 1.07-1.69 1.79a1.4 1.4 0 0 0-.03.41c0 .07.02.13.05.19.04.06.09.1.15.14a.2.2 0 0 1-.2.32.84.84 0 0 1-.26-.25l-.02-.01a.78.78 0 0 1-.1-.36c-.02-.18 0-.36.04-.53.2-.83.98-1.54 1.87-2.04.88-.5 1.88-.8 2.54-.84.19-.02.35 0 .48.02"/><path id="cryidg" d="M148.5 925.45a.32.32 0 1 1 .51.39c-.37.5-.53.91-.47 1.53.06.68.37 1.6.93 3.1.83 2.21 1.94 5.39 3.11 8.84 1.56 4.58 3.24 9.66 4.56 13.69.2.62.38 1.25.55 1.85.66 2.28 1.12 3.84 2.7 3.74.93-.06 2-.22 2.96-.52a5.53 5.53 0 0 0 2.16-1.14c.5-.48.8-1.1.75-1.86a3.32 3.32 0 0 0-.14-.76 518 518 0 0 0-4.43-13.05c-2.21-6.36-4.48-12.88-5.34-15.97-.12-.43-.3-.78-.53-1.02a1.1 1.1 0 0 0-.74-.33.32.32 0 0 1 .03-.64c.47.02.86.21 1.17.53.31.31.54.76.69 1.3.85 3.06 3.11 9.57 5.32 15.92 1.77 5.08 3.5 10.04 4.44 13.07.1.32.15.62.17.9.07.99-.31 1.77-.96 2.37-.61.58-1.47 1-2.4 1.29-1.02.32-2.14.48-3.12.55-2.09.14-2.6-1.63-3.34-4.2-.16-.57-.33-1.17-.55-1.84-1.32-4.02-3-9.1-4.55-13.67-1.18-3.47-2.3-6.65-3.11-8.84-.58-1.53-.9-2.5-.96-3.25-.08-.81.12-1.35.6-1.98"/><path id="cryidh" d="M155.74 928.32a.2.2 0 0 1 .36-.15c.1.22.24.7.4 1.23.25.82.54 1.85.66 2.27a.2.2 0 0 1-.37.1l-.65-2.26c-.16-.53-.31-1-.4-1.2"/><path id="cryidi" d="M157.59 933.81a.2.2 0 0 1 .35-.16c.7 1.51 1.89 5.42 2.91 8.8.5 1.65.97 3.17 1.32 4.25 0 .02 0 0 0 0 .04.06.04.06.05.17a.2.2 0 0 1-.39.03h.01a210.56 210.56 0 0 1-1.35-4.33c-1.03-3.37-2.2-7.26-2.9-8.76m4.26 13.1l-.01-.01.01.02"/><path id="cryidj" d="M151.74 924.61a.32.32 0 0 1 .64-.04c.16 2.47.74 5.47 1.6 8.4a39.07 39.07 0 0 0 3.97 9.3c2.14 3.75 4.5 7.86 4.78 13.9a.32.32 0 0 1-.64.02c-.28-5.87-2.59-9.91-4.7-13.6l-.86-1.53a39.72 39.72 0 0 1-3.17-7.92 41.8 41.8 0 0 1-1.62-8.53"/><path id="cryidk" d="M157.57 894.16c.11.1.27.16.44.17a.9.9 0 0 0 .38-.04c.12-.04.22-.11.3-.2l.01-.01c.1-.12.17-.28.19-.49a.94.94 0 0 0-.04-.35.73.73 0 0 0-.28-.4 1 1 0 0 0-.85-.13.89.89 0 0 0-.41.27.65.65 0 0 0-.13.64c.05.17.17.36.4.54m.4.56a1.19 1.19 0 0 1-.66-.27 1.58 1.58 0 0 1-.51-.72 1.04 1.04 0 0 1 .2-1c.16-.18.37-.31.6-.38a1.38 1.38 0 0 1 1.18.18c.2.14.35.34.43.6.05.14.07.31.05.5-.03.3-.13.52-.28.7-.13.15-.3.26-.47.32a1.3 1.3 0 0 1-.54.07"/><path id="cryidl" d="M154 903.68c-.6-1.96-1.2-5.62-1.64-8.28-.16-1-.3-1.87-.41-2.46a.3.3 0 0 1 0-.09c0-.14.04-.27.1-.4.4-.78 1.87-1.4 3.63-1.79 1.7-.38 3.7-.56 5.23-.47.86.06 1.59.2 2.06.44.06.03.1.07.14.13.27.43.58 1.87.87 3.58.47 2.86.91 6.56.95 7.36a.32.32 0 0 1-.36.33c-.82-.07-5.55.92-8.27 1.49-1.12.23-1.91.4-2.02.39a.32.32 0 0 1-.27-.23zm-1-8.39c.4 2.53.97 5.96 1.54 7.94l1.63-.34c2.49-.52 6.65-1.39 8.1-1.49-.1-1.2-.5-4.4-.92-6.96-.28-1.7-.55-3.07-.7-3.26-.4-.19-1.02-.3-1.77-.35-1.48-.09-3.42.09-5.06.45-1.6.36-2.9.87-3.2 1.46a.43.43 0 0 0-.04.13l.41 2.42z"/><path id="cryidm" d="M154.4 893.42a.2.2 0 1 1 .37-.11c.16.51.26 1.47.36 2.53.13 1.38.28 2.96.62 3.95.21.64.5 1.02.88.89a15.78 15.78 0 0 1 2.12-.54c.1-.02.2.06.22.16a.2.2 0 0 1-.15.22 13.85 13.85 0 0 0-2.07.52c-.66.22-1.08-.27-1.37-1.13-.34-1.03-.5-2.63-.63-4.04-.1-1.04-.2-1.97-.34-2.45"/><path id="cryidn" d="M154.84 903.55a.32.32 0 0 1 .64-.04c.04.77.18 2.47.44 3.68.13.63.26 1.1.35 1.11.29.03.86-.11 1.63-.3h.01c1.21-.3 2.87-.7 4.82-.78a.32.32 0 0 1 .03.64c-1.89.08-3.52.48-4.7.76a7.1 7.1 0 0 1-1.84.32c-.44-.05-.74-.72-.93-1.62-.26-1.24-.4-2.99-.45-3.77m10.1 2.33a.32.32 0 0 1-.64 0c-.01-.78-.28-1.85-.52-2.81l-.28-1.18a.32.32 0 0 1 .63-.13l.27 1.15c.25 1 .53 2.1.54 2.97"/><path id="cryido" d="M156.66 904.42a.2.2 0 0 1 .38-.06c.04.24.06.5.09.77.06.78.13 1.6.6 1.65.11 0 .2.1.18.2a.2.2 0 0 1-.2.18c-.8-.08-.89-1.06-.97-2-.02-.26-.04-.52-.08-.74"/><path id="cryidp" d="M157.9 908.25a.2.2 0 0 1 .36.14c-.12.3-.1.54.03.72.13.2.38.35.7.46.34.1.76.17 1.2.18 1.26.05 2.7-.26 3.06-.73a.2.2 0 0 1 .3.24c-.43.56-2 .93-3.38.88a4.8 4.8 0 0 1-1.3-.21c-.4-.13-.72-.33-.9-.6-.2-.29-.23-.65-.06-1.08"/><path id="cryidq" d="M168.05 938.48c.1.04.14.15.1.24a.2.2 0 0 1-.25.11 1.33 1.33 0 0 0-.36-.08c-.6-.05-1.57.09-2.47.42-.87.32-1.67.83-1.95 1.5-.05.13-.08.27-.1.4 0 .08 0 .14.03.2s.07.11.12.16a.2.2 0 0 1-.25.29.77.77 0 0 1-.27-.68c.01-.18.05-.35.12-.5.33-.8 1.2-1.38 2.17-1.73.95-.35 1.98-.5 2.64-.44.18.02.35.05.47.1"/><path id="cryidr" d="M157.06 908.33a.32.32 0 0 1 .45.46c-.45.43-.67.82-.71 1.44-.05.68.11 1.65.43 3.2.47 2.32 1.07 5.63 1.69 9.23.81 4.73 1.68 10.02 2.35 14.23.11.7.19 1.33.26 1.9.3 2.37.5 3.99 2.06 4.13 1.1.1 2.39.1 3.53-.14.87-.18 1.65-.5 2.17-1a.32.32 0 1 1 .44.46c-.61.6-1.5.96-2.48 1.17-1.21.25-2.57.25-3.71.15-2.09-.2-2.32-2.02-2.65-4.68-.07-.6-.15-1.26-.25-1.9-.67-4.15-1.53-9.41-2.35-14.21a338.4 338.4 0 0 0-1.69-9.22c-.33-1.6-.49-2.61-.44-3.36.05-.81.34-1.31.9-1.86"/><path id="cryids" d="M158.86 915.49a.2.2 0 1 1 .37-.1c.11.5.62 5.33.85 7.54l.11 1.04a.2.2 0 0 1-.38.04l-.1-1.04c-.24-2.2-.74-7.03-.85-7.48"/><path id="cryidt" d="M160 908.15a.32.32 0 0 1 .26-.37c.17-.04.34.08.37.25.22 1.16.63 2.93 1.11 5.06 1.88 8.24 5.01 21.96 3.75 27.8a.32.32 0 0 1-.62-.14c1.23-5.7-1.88-19.33-3.75-27.52-.5-2.15-.9-3.92-1.11-5.08"/><path id="cryidu" d="M169.26 908.13c.11.1.27.16.44.17a.9.9 0 0 0 .38-.04.72.72 0 0 0 .3-.21l.02-.01c.1-.11.16-.27.18-.48a.92.92 0 0 0-.04-.36.74.74 0 0 0-.28-.39.97.97 0 0 0-.47-.16.98.98 0 0 0-.38.03.88.88 0 0 0-.41.27.66.66 0 0 0-.14.64c.06.17.18.36.4.54m.4.56a1.18 1.18 0 0 1-.65-.27 1.58 1.58 0 0 1-.51-.72 1.04 1.04 0 0 1 .2-1c.16-.18.37-.31.6-.38a1.38 1.38 0 0 1 1.18.18c.2.14.35.34.43.6.05.14.06.31.05.5-.03.29-.13.51-.27.69-.14.16-.3.27-.48.33s-.36.08-.54.07"/><path id="cryidv" d="M165.7 917.66c-.61-1.97-1.21-5.63-1.65-8.3-.16-1-.3-1.86-.41-2.45a.3.3 0 0 1 0-.08c0-.14.04-.28.1-.41.4-.77 1.87-1.4 3.63-1.79 1.7-.38 3.7-.56 5.23-.47.86.06 1.59.2 2.06.43.06.04.1.08.14.14.27.43.58 1.86.87 3.58.47 2.86.92 6.56.95 7.36a.32.32 0 0 1-.35.33c-.83-.07-5.56.92-8.27 1.49-1.13.23-1.92.4-2.02.39a.32.32 0 0 1-.28-.22zm-1.02-8.4c.42 2.53.98 5.96 1.55 7.94l1.64-.34c2.48-.52 6.64-1.39 8.09-1.5-.1-1.19-.5-4.4-.92-6.95-.29-1.7-.55-3.07-.7-3.26-.4-.2-1.03-.3-1.78-.35a19.7 19.7 0 0 0-5.06.46c-1.58.35-2.88.86-3.18 1.45a.47.47 0 0 0-.05.13c.1.56.25 1.42.41 2.43z"/><path id="cryidw" d="M166.1 907.38a.2.2 0 0 1 .36-.11c.16.51.26 1.47.36 2.53.13 1.38.29 2.96.62 3.95.22.64.5 1.02.88.89.7-.23 1.52-.45 2.33-.57a8.4 8.4 0 0 1 2.01-.1c.1.01.19.1.18.21a.2.2 0 0 1-.21.17 8.09 8.09 0 0 0-1.91.1h-.01c-.8.12-1.6.33-2.27.55-.65.22-1.07-.27-1.36-1.13-.35-1.03-.5-2.63-.64-4.04-.1-1.04-.2-1.97-.34-2.45m4.56 6.69l.21.16a.2.2 0 0 0-.21-.16"/><path id="cryidx" d="M166.54 917.5a.32.32 0 0 1 .64-.03c.04.77.18 2.47.44 3.68.13.64.26 1.1.36 1.11.28.03.9-.11 1.72-.3 1.38-.32 3.33-.77 5.51-.8.65 0 .85-.56.85-1.28-.02-.94-.36-2.17-.61-3.09-.1-.37-.2-.7-.25-.94a.32.32 0 0 1 .63-.13l.23.9c.27.95.62 2.22.63 3.25.02 1.1-.33 1.92-1.47 1.93-2.1.03-4.02.47-5.38.78-.87.2-1.53.35-1.92.32-.44-.04-.73-.72-.93-1.62-.26-1.24-.4-2.98-.45-3.77"/><path id="cryidy" d="M168.35 918.4a.2.2 0 0 1 .38-.07c.04.24.06.5.09.77.05.62.1 1.25.35 1.52.04.04.2.08.71.04.39-.02.94-.1 1.72-.28a.2.2 0 0 1 .08.37c-.8.18-1.38.27-1.77.3-.67.04-.93-.08-1.02-.17-.34-.36-.4-1.07-.46-1.74a9.2 9.2 0 0 0-.08-.75"/><path id="cryidz" d="M169.6 922.21a.2.2 0 0 1 .36.14c-.13.34-.08.6.1.79.16.17.42.3.74.39.33.1.72.14 1.14.15 1.33.02 2.84-.36 3.18-.97a.2.2 0 0 1 .34.18c-.4.74-2.08 1.2-3.53 1.17-.45 0-.87-.06-1.24-.16-.38-.11-.7-.27-.91-.5-.28-.3-.37-.7-.18-1.19"/><path id="cryidA" d="M179.76 952.45c.1.03.14.15.1.24a.2.2 0 0 1-.25.1 1.31 1.31 0 0 0-.36-.07c-.6-.05-1.57.09-2.47.42-.88.33-1.67.83-1.95 1.5-.05.14-.08.27-.1.4 0 .08 0 .15.03.2.02.06.07.11.12.17.08.07.09.19.02.27a.2.2 0 0 1-.27.01.83.83 0 0 1-.22-.3.78.78 0 0 1-.06-.38c.02-.17.06-.35.13-.5.32-.8 1.2-1.37 2.16-1.73h.01c.94-.35 1.98-.5 2.64-.44.18.02.34.05.47.1"/><path id="cryidB" d="M168.76 922.3a.32.32 0 0 1 .44.46c-.44.43-.66.82-.7 1.44-.05.68.11 1.65.43 3.2.47 2.32 1.07 5.64 1.7 9.24a1226.98 1226.98 0 0 1 2.6 15.86c.2 1.46.38 2.77.71 3.55a.32.32 0 1 1-.58.25c-.37-.87-.56-2.21-.77-3.71l-.24-1.64c-.67-4.14-1.53-9.4-2.36-14.2-.62-3.62-1.22-6.93-1.69-9.23-.33-1.6-.49-2.61-.44-3.36.05-.81.33-1.31.9-1.86m12.1 34.38a.32.32 0 0 1-.35-.55c.44-.27.78-.62.98-1.07.18-.4.24-.9.15-1.5v-.02c-.46-3.15-1.39-8.31-2.33-13.58-1.2-6.63-2.41-13.42-2.77-16.6a2.33 2.33 0 0 0-.37-1.08 1.09 1.09 0 0 0-.68-.45.32.32 0 1 1 .13-.62c.46.1.82.34 1.08.7.25.36.4.84.47 1.39.36 3.16 1.58 9.94 2.77 16.55.95 5.28 1.88 10.47 2.33 13.6.11.74.03 1.35-.2 1.87a3.04 3.04 0 0 1-1.22 1.36"/><path id="cryidC" d="M175.47 926.26a.2.2 0 0 1 .14-.23c.1-.03.2.03.23.14a108.18 108.18 0 0 1 .5 3.62.2.2 0 1 1-.38.04c-.05-.42-.17-1.47-.3-2.34-.07-.54-.14-1.02-.2-1.23"/><path id="cryidD" d="M176.43 931.98a.2.2 0 0 1 .13-.24c.1-.03.2.03.24.13.45 1.6 1.02 5.65 1.5 9.15.24 1.72.46 3.3.64 4.4 0 .01 0 0 0 0v.01c.02.05.03.06.02.17a.2.2 0 1 1-.39-.04h.01a207.12 207.12 0 0 1-.66-4.49c-.48-3.48-1.04-7.51-1.5-9.1m2.17 13.61v-.02h-.01l.01.02"/><path id="cryidE" d="M172.1 922.08a.32.32 0 1 1 .62-.14c1.71 7.27 2.37 13.08 2.99 18.46.55 4.88 1.07 9.41 2.3 14.35a.32.32 0 0 1-.63.15c-1.23-4.98-1.75-9.52-2.31-14.43a147.97 147.97 0 0 0-2.97-18.39"/><path id="cryidF" d="M182.76 898.47c.1.11.24.2.4.24l.26.03zm-.3.25a1.58 1.58 0 0 1-.39-.8 1.03 1.03 0 0 1 .36-.95c.18-.15.4-.25.65-.29a1.38 1.38 0 0 1 1.14.37c.17.17.3.39.33.65.02.15.01.32-.03.5-.08.3-.21.5-.39.65a1.1 1.1 0 0 1-.5.25h-.01a1.27 1.27 0 0 1-1.15-.38zm1.42-.16c.12-.1.21-.24.26-.45a.93.93 0 0 0 .03-.36.74.74 0 0 0-.22-.43 1.01 1.01 0 0 0-.82-.26.87.87 0 0 0-.45.2.66.66 0 0 0-.23.6c.03.19.12.4.3.61l1.13.1z"/><path id="cryidG" d="M177.77 907.32c-.3-2.03-.33-5.74-.35-8.44a105.18 105.18 0 0 0-.02-2.56c.03-.14.09-.27.18-.4.5-.7 2.05-1.09 3.85-1.2 1.74-.11 3.74.02 5.24.34.84.19 1.54.44 1.97.75.05.04.09.09.11.15.2.46.3 1.93.3 3.67.03 2.9-.1 6.63-.19 7.42a.32.32 0 0 1-.35.28h-.04c-.79-.2-5.63.05-8.4.19-1.16.06-1.97.1-2.06.07a.32.32 0 0 1-.24-.27m.3-8.44c0 2.56.03 6.03.3 8.08l1.66-.08c2.54-.13 6.78-.35 8.23-.23.08-1.2.18-4.43.16-7.01-.01-1.72-.07-3.12-.19-3.34a5.13 5.13 0 0 0-1.7-.61 19.66 19.66 0 0 0-5.06-.33c-1.62.1-2.99.4-3.37.94a.42.42 0 0 0-.07.12c.02.59.02 1.45.03 2.46m10.7-2.92l-.05.3c.06-.1.08-.2.04-.3"/><path id="cryidH" d="M179.74 897.24a.2.2 0 0 1 .38-.06c.08.54.02 1.5-.04 2.56-.08 1.4-.17 2.97 0 4 .12.66.33 1.09.74 1.02a.2.2 0 0 1 .06.38c-.68.11-1.02-.44-1.17-1.34a20.88 20.88 0 0 1-.01-4.08c.06-1.05.11-1.98.04-2.48"/><path id="cryidI" d="M178.62 907.32a.32.32 0 0 1 .63.06c-.07.77-.2 2.47-.13 3.7.03.65.1 1.14.18 1.16.28.07.9.02 1.75-.04 1.41-.1 3.41-.24 5.57.07.65.1.93-.42 1.03-1.14.14-.93-.01-2.2-.12-3.14-.05-.38-.09-.7-.1-.96a.32.32 0 1 1 .64-.04c.01.23.05.55.1.93.1.98.26 2.29.11 3.3-.15 1.08-.63 1.84-1.75 1.68-2.09-.3-4.05-.16-5.44-.06-.9.07-1.57.11-1.95.02-.42-.11-.6-.82-.66-1.74-.07-1.27.06-3.01.14-3.8"/><path id="cryidJ" d="M180.27 908.46a.2.2 0 1 1 .39 0c0 .25-.02.51-.04.78-.05.78-.11 1.6.35 1.71a.2.2 0 0 1-.09.38c-.78-.2-.7-1.19-.64-2.12.02-.26.04-.53.03-.75"/><path id="cryidK" d="M180.76 912.56a.2.2 0 0 1 .33.2c-.45.72-.3 1.19.14 1.46.55.34 1.51.43 2.43.32.92-.1 1.8-.38 2.17-.79.24-.26.24-.59-.17-.97a.2.2 0 1 1 .26-.28c.61.57.59 1.09.19 1.51-.44.48-1.4.8-2.4.92-1 .1-2.06 0-2.68-.38-.63-.4-.86-1.04-.27-1.99"/><path id="cryidL" d="M186.27 943.87a.2.2 0 0 1-.2.33c-.36-.22-1.26-.31-2.22-.2-.8.08-1.62.3-2.2.7a.2.2 0 0 1-.27-.06.2.2 0 0 1 .06-.26 5.44 5.44 0 0 1 2.37-.77 4.7 4.7 0 0 1 2.46.26"/><path id="cryidM" d="M180.07 912.39a.32.32 0 0 1 .37.52c-.5.36-.79.7-.92 1.31-.15.67-.14 1.65-.07 3.23.07 1.59.13 3.65.18 5.96.06 2.67.1 5.68.13 8.67a.32.32 0 0 1-.64 0 792.1 792.1 0 0 0-.13-8.66c-.05-2.29-.1-4.34-.18-5.94-.08-1.64-.08-2.66.08-3.4.18-.79.54-1.24 1.18-1.7m.96 35.81a.32.32 0 1 1 .16-.62c.91.23 1.97.4 2.99.42.88 0 1.73-.1 2.4-.43.63-.3 1.1-.79 1.29-1.54.06-.23.09-.48.1-.76.03-3.17-.1-8.42-.21-13.78-.15-6.73-.3-13.64-.17-16.83.02-.45-.04-.84-.19-1.13a1.09 1.09 0 0 0-.6-.55.32.32 0 0 1 .22-.6c.44.17.75.46.95.86.2.4.28.89.26 1.44-.14 3.18.02 10.08.17 16.8.12 5.36.23 10.62.2 13.8 0 .33-.04.63-.11.91a2.88 2.88 0 0 1-1.64 1.96c-.76.36-1.7.5-2.68.49-1.07-.01-2.19-.2-3.14-.44"/><path id="cryidN" d="M186.1 917.34c-.01-.1.1-.2.23-.2.14-.02.27.06.28.17.02.23.02.73 0 1.29-.01.9-.07 1.94-.1 2.36 0 .1-.12.19-.26.19s-.25-.1-.24-.2c.03-.43.08-1.48.1-2.36.01-.54.02-1.02 0-1.25"/><path id="cryidO" d="M186.14 923.14c-.01-.1.08-.2.2-.22.14-.01.25.06.27.17.25 1.66.16 5.76.08 9.3l-.01.9c0 .11-.11.2-.24.2s-.24-.1-.23-.2l.02-.9c.07-3.53.16-7.61-.09-9.25"/><path id="cryidP" d="M183.41 912.6a.32.32 0 0 1 .62.15c-.6 2.4-.97 5.43-1.06 8.48a39.08 39.08 0 0 0 .92 10.07c.89 4.24 1.86 8.87.28 14.7a.32.32 0 0 1-.62-.17c1.54-5.68.59-10.24-.29-14.4l-.35-1.72a39.7 39.7 0 0 1-.58-8.5c.1-3.1.47-6.18 1.08-8.62"/><path id="cryidQ" d="M196.08 905.02c.08.11.22.2.37.26a.9.9 0 0 0 .38.04.71.71 0 0 0 .35-.13h.01a.86.86 0 0 0 .3-.42.93.93 0 0 0 .05-.36.75.75 0 0 0-.19-.45.98.98 0 0 0-.79-.33.88.88 0 0 0-.46.16l-.01.01a.66.66 0 0 0-.27.58c0 .18.08.39.25.62zm-.31.22l-.01-.01c-.22-.3-.32-.58-.33-.83a1.03 1.03 0 0 1 .43-.9l.01-.02c.2-.13.43-.22.67-.23a1.38 1.38 0 0 1 1.1.46c.16.19.26.42.28.68 0 .16-.02.33-.08.5-.1.28-.24.47-.42.6l-.02.02a1.1 1.1 0 0 1-.53.2c-.19.01-.37-.01-.54-.07a1.18 1.18 0 0 1-.56-.4zm.25.03a.2.2 0 0 0 .06-.25z"/><path id="cryidR" d="M190.32 913.38c-.12-2.06.18-5.75.4-8.44.08-1.03.15-1.92.18-2.48l.02-.08c.04-.14.11-.26.21-.37.57-.66 2.14-.9 3.94-.87 1.75.05 3.73.35 5.2.81.82.26 1.49.57 1.89.91.05.05.08.1.1.16.17.47.12 1.95-.01 3.69-.23 2.88-.7 6.59-.85 7.37a.32.32 0 0 1-.42.24c-.77-.27-5.6-.45-8.39-.55a26.66 26.66 0 0 1-2.06-.1.32.32 0 0 1-.21-.29m1.04-8.39c-.21 2.56-.5 6.02-.42 8.08l1.68.06c2.54.1 6.78.25 8.2.5.2-1.18.58-4.4.79-6.97.13-1.72.2-3.12.1-3.34a5.12 5.12 0 0 0-1.63-.76 19.63 19.63 0 0 0-5.02-.78c-1.63-.04-3.01.15-3.45.64a.44.44 0 0 0-.07.12c-.03.6-.1 1.46-.18 2.45"/><path id="cryidS" d="M193.18 903.51c0-.1.08-.2.19-.2.1 0 .2.08.2.18.03.54-.11 1.49-.27 2.54-.2 1.38-.43 2.94-.35 3.99.06.67.24 1.1.64 1.07a15.22 15.22 0 0 1 2.8.05c.1.02.18.11.17.22a.2.2 0 0 1-.22.16 12.18 12.18 0 0 0-2.72-.04c-.69.05-.98-.53-1.05-1.43-.09-1.09.15-2.68.35-4.07.15-1.04.3-1.97.26-2.47"/><path id="cryidT" d="M191.16 913.45c.04-.17.2-.29.38-.25.17.03.29.2.25.37-.14.76-.42 2.44-.46 3.67-.02.65 0 1.14.08 1.17.28.1.9.1 1.74.12 1.43.02 3.44.06 5.55.55.63.15.96-.33 1.13-1.04.21-.92.18-2.19.15-3.14 0-.39-.02-.72-.01-.97 0-.18.15-.31.33-.3.18 0 .31.15.3.32l.02.93c.03.99.07 2.31-.17 3.3-.25 1.07-.79 1.79-1.9 1.53a24.9 24.9 0 0 0-5.4-.54 7.83 7.83 0 0 1-1.95-.16c-.42-.14-.54-.87-.5-1.79.04-1.27.32-3 .46-3.77"/><path id="cryidU" d="M192.71 914.74c0-.1.1-.19.2-.18.11 0 .2.1.18.2-.01.24-.06.5-.1.78-.1.6-.2 1.24-.02 1.56.01.02.08.06.28.12.17.05.42.1.78.14.1.01.18.11.17.21a.2.2 0 0 1-.21.17c-.39-.04-.66-.1-.85-.15-.32-.1-.46-.22-.5-.3-.25-.44-.14-1.14-.03-1.81.04-.26.08-.51.1-.74"/><path id="cryidV" d="M192.28 920.45a.2.2 0 0 1 .15-.23c.1-.02.2.05.23.15.11.55 1.13.8 2.26.78.46 0 .94-.06 1.4-.15.43-.1.85-.23 1.17-.4.51-.28.8-.65.68-1.1a.2.2 0 0 1 .13-.23c.1-.03.2.03.24.13.19.65-.2 1.17-.87 1.53-.36.2-.8.34-1.28.44-.47.1-.98.16-1.47.16-1.3.02-2.48-.32-2.64-1.08"/><path id="cryidW" d="M195.57 950.53a.2.2 0 1 1-.23.3c-.07-.05-.19-.1-.33-.15-.57-.2-1.55-.3-2.5-.2-.92.11-1.81.41-2.25 1-.08.11-.14.23-.2.37a.4.4 0 0 0-.01.19c0 .06.03.12.08.19a.2.2 0 0 1-.05.27.2.2 0 0 1-.27-.06.78.78 0 0 1-.1-.71c.06-.18.14-.33.24-.47.5-.7 1.5-1.04 2.52-1.15 1-.12 2.05 0 2.67.2.18.07.32.14.43.22"/><path id="cryidX" d="M192.17 918.63a.32.32 0 0 1 .32.55c-.53.32-.84.64-1.03 1.23-.21.65-.29 1.63-.36 3.2-.1 2.38-.31 5.74-.58 9.38-.35 4.84-.78 10.17-1.14 14.37-.06.68-.13 1.32-.2 1.92-.29 2.36-.48 3.98 1 4.5.9.3 1.94.58 2.95.68.88.08 1.73.04 2.42-.22.66-.24 1.18-.69 1.43-1.42.08-.23.13-.48.16-.75.31-3.14.66-8.39 1-13.74.45-6.72.9-13.6 1.32-16.79.06-.44.03-.83-.09-1.14-.1-.26-.28-.47-.55-.6a.32.32 0 0 1 .28-.57c.42.2.7.52.87.93.16.42.2.91.12 1.47-.4 3.14-.86 10.03-1.3 16.74-.36 5.35-.7 10.59-1.01 13.76-.04.32-.1.62-.2.89v.01c-.32.94-.97 1.5-1.8 1.81-.8.3-1.75.35-2.71.25-1.07-.1-2.16-.39-3.1-.7-1.97-.7-1.75-2.52-1.43-5.18.07-.6.15-1.23.2-1.9.36-4.23.8-9.57 1.15-14.36.26-3.66.48-7.02.58-9.36.06-1.63.15-2.65.38-3.37.24-.77.64-1.19 1.32-1.59"/><path id="cryidY" d="M197.72 924.08a.2.2 0 0 1 .38 0c0 .24-.05.74-.1 1.29l-.29 2.35a.2.2 0 0 1-.38-.05c.06-.42.19-1.46.28-2.34.06-.55.1-1.03.1-1.25"/><path id="cryidZ" d="M197.27 929.87a.2.2 0 0 1 .39-.01c.05 1.67-.38 5.72-.75 9.24-.18 1.71-.35 3.3-.44 4.42v.02c0 .05 0 .06-.03.16a.2.2 0 0 1-.36-.13v-.08c.1-1.1.27-2.7.45-4.43.37-3.5.8-7.55.74-9.2zm-1.18 13.73v-.02.03z"/><path id="cryiea" d="M195.48 919.1a.32.32 0 0 1 .6.25c-2.97 7.15-2.69 15.81-2.46 22.69.16 5.12.3 9.27-.97 11.19-.1.14-.3.18-.45.09a.32.32 0 0 1-.09-.45c1.16-1.74 1.03-5.8.87-10.81-.23-6.94-.51-15.68 2.5-22.95"/><path id="cryieb" d="M170.64 893.02a.2.2 0 0 1-.39.03 44.5 44.5 0 0 1-.03-3.54c.04-.9.2-1.53.61-1.98.41-.45 1.05-.71 2.02-.9.81-.14 1.76-.18 2.68-.15 1 .04 1.94.18 2.62.38.73.21 1.17.51 1.46 1.05.27.5.38 1.22.45 2.28 0 .1-.07.2-.18.2a.2.2 0 0 1-.2-.17c-.07-1.01-.17-1.68-.41-2.13-.23-.43-.6-.68-1.23-.86a11.2 11.2 0 0 0-2.53-.36c-.89-.04-1.81 0-2.6.14-.88.17-1.45.4-1.8.78-.34.37-.48.92-.5 1.73a45.56 45.56 0 0 0 .03 3.5"/><path id="cryiec" d="M158.92 950.66c.1-.01.2.06.21.16a.2.2 0 0 1-.16.22c-2.05.32-4.55.82-7.18 1.35-5.02 1.02-10.52 2.13-14.23 2.2l-.6.01a.2.2 0 0 1-.01-.38l.6-.01c3.67-.07 9.16-1.18 14.16-2.2a170.7 170.7 0 0 1 7.2-1.35"/><path id="cryied" d="M149.58 933.32s-.9-.05-.61 1.05c.36 1.42 2.3 3.77 3.11 3.74 11.97-.38 31.36.37 42.64-2.51 5.53-1.42 4.44-2.75 5.62-6.02 1.26-3.53-.37-6.81-.3-4.91.15 3.75-8.49 6.2-12.23 6.76-3.2.48-6.5-.33-11.18.55-1.38.25-3.81.27-6.43.68-7.53 1.18-18 2.63-20.62.66"/><path id="cryiee" d="M149.2 931.06a.32.32 0 0 1 .33.54c-.49.3-.76.54-.87.75-.07.15-.04.28.07.39.16.18.46.34.83.47 1.25.47 3.15.67 3.63.68 4.4.14 9.48-.59 14.77-1.35 1.68-.24 3.38-.49 5.16-.72 4.02-.52 6.93-.67 9.41-.79 2.41-.12 4.41-.22 6.61-.63 4.32-.79 7.82-2.11 9.73-3.7.58-.49 1-1 1.26-1.5.24-.5.33-1.01.23-1.53-.09-.49-.34-1-.77-1.5a.32.32 0 0 1 .5-.42c.5.6.8 1.2.9 1.8.12.66.02 1.3-.29 1.93a5.4 5.4 0 0 1-1.42 1.7c-2 1.67-5.6 3.04-10.02 3.85a49 49 0 0 1-6.7.64c-2.47.12-5.38.27-9.36.78-1.68.22-3.43.47-5.15.72-5.32.77-10.42 1.5-14.88 1.36-.5-.02-2.52-.22-3.84-.72a2.86 2.86 0 0 1-1.07-.63c-.3-.32-.39-.7-.17-1.12.17-.31.52-.65 1.1-1"/><path id="cryief" d="M200.35 923.62a.32.32 0 0 1 .61-.18c.78 2.7.54 3.57.23 4.67-.2.7-.42 1.51-.37 3.06.15 5.13-12.48 6.48-24.96 6.85-4.22.13-8.44.15-12.12.16-3.86.02-7.13.03-9.22.17l-.3.02c-2.39.15-4.34.28-4.62-1.34-.03-.21-.22-1-.48-1.65-.15-.35-.3-.65-.45-.76a.32.32 0 0 1 .38-.52c.26.2.48.6.66 1.04.28.7.48 1.55.52 1.78.18 1.06 1.88.94 3.94.8l.3-.01c2.1-.14 5.39-.15 9.27-.17 3.67-.01 7.88-.03 12.1-.15 12.17-.37 24.47-1.6 24.34-6.2-.05-1.65.19-2.5.4-3.25.28-1 .5-1.8-.23-4.32"/><path id="cryieg" d="M199.21 929.54a.2.2 0 0 1 .3.23 6.4 6.4 0 0 1-2.3 1.42c-1.32.56-2.8 1-3.41 1.03a.2.2 0 0 1-.2-.19c0-.1.08-.2.18-.2.58-.03 2-.45 3.27-.99a6.13 6.13 0 0 0 2.16-1.3"/><path id="cryieh" d="M198.06 931.46a.2.2 0 0 1 .3.23c-.2.28-.6.56-1.05.8-.64.33-1.38.6-1.83.75a.2.2 0 0 1-.24-.13.2.2 0 0 1 .13-.24c.43-.13 1.15-.4 1.76-.72.4-.22.76-.45.93-.7"/><path id="cryiei" d="M150.91 935.8a.2.2 0 1 1 .1-.36 8.7 8.7 0 0 0 2.97.33h.75a.2.2 0 1 1 0 .38h-.75c-1.12.02-1.72.03-3.07-.34"/><path id="cryiej" d="M149.9 936.55a.32.32 0 0 1-.05.63 3.82 3.82 0 0 1-1.34-.4c-.81-.37-1.5-.68-2.5 1.54-.98 2.15-2.7 2-4.9 1.81-1.7-.15-3.73-.32-5.9.64a.32.32 0 0 1-.26-.58c2.32-1.03 4.44-.85 6.22-.7 1.95.17 3.46.3 4.25-1.44 1.28-2.8 2.22-2.37 3.35-1.86.35.16.73.33 1.12.36"/><path id="cryiek" d="M151.16 937.72a.32.32 0 1 1 .1.63c-.63.11-.67.69-.71 1.37-.1 1.65-.25 3.78-6.14 3.53-1.62-.07-2.49-.28-3.08-.42-1.12-.26-1.14-.26-4.41 1.89-2.46 1.6-4.53 1.03-6.52.48-1.93-.53-3.77-1.04-5.76.8l-.05.1v.02a.32.32 0 1 1-.58-.28v-.02a1.43 1.43 0 0 1 .2-.28c2.24-2.1 4.25-1.54 6.37-.95 1.84.51 3.78 1.05 5.99-.4 3.5-2.3 3.52-2.3 4.9-1.98.58.13 1.41.33 2.96.4 5.27.23 5.4-1.55 5.48-2.93.06-.96.12-1.77 1.25-1.96"/><clipPath id="cryiw"><use xlink:href="#cryia"/></clipPath><clipPath id="cryiP"><use xlink:href="#cryia"/></clipPath></defs><g><g transform="translate(-122 -806)"><g><use fill="#eeedec" xlink:href="#cryib"/></g><g><use fill="#fefefe" xlink:href="#cryic"/></g><g><use fill="#d0cdcd" xlink:href="#cryid"/></g><g><use fill="#d0cdcd" xlink:href="#cryie"/></g><g><use fill="#d0cdcd" xlink:href="#cryif"/></g><g><use fill="#d0cdcd" xlink:href="#cryig"/></g><g><use fill="#d0cdcd" xlink:href="#cryih"/></g><g><use fill="#d0cdcd" xlink:href="#cryii"/></g><g><use fill="#d0cdcd" xlink:href="#cryij"/></g><g><use fill="#d0cdcd" xlink:href="#cryik"/></g><g><use fill="#101418" xlink:href="#cryil"/></g><g><use fill="#101418" xlink:href="#cryim"/></g><g><use fill="#919495" xlink:href="#cryin"/></g><g><use fill="#919495" xlink:href="#cryio"/></g><g><use fill="#d0cdcd" xlink:href="#cryip"/></g><g><use fill="#d0cdcd" xlink:href="#cryiq"/></g><g><use fill="#d0cdcd" xlink:href="#cryir"/></g><g><use fill="#d0cdcd" xlink:href="#cryis"/></g><g><use fill="#d0cdcd" xlink:href="#cryit"/></g><g><use fill="#d0cdcd" xlink:href="#cryiu"/></g><g><use fill="#d0cdcd" xlink:href="#cryiv"/></g><g><g/><g clip-path="url(#cryiw)"><use fill="#d0cdcd" xlink:href="#cryix"/></g></g><g><use fill="#d0cdcd" xlink:href="#cryiy"/></g><g><use fill="#d0cdcd" xlink:href="#cryiz"/></g><g><use fill="#d0cdcd" xlink:href="#cryiA"/></g><g><use fill="#919495" xlink:href="#cryiB"/></g><g><use fill="#919495" xlink:href="#cryiC"/></g><g><use fill="#919495" xlink:href="#cryiD"/></g><g><use fill="#919495" xlink:href="#cryiE"/></g><g><use fill="#919495" xlink:href="#cryiF"/></g><g><use fill="#919495" xlink:href="#cryiG"/></g><g><use fill="#919495" xlink:href="#cryiH"/></g><g><use fill="#919495" xlink:href="#cryiI"/></g><g><use fill="#919495" xlink:href="#cryiJ"/></g><g><use fill="#919495" xlink:href="#cryiK"/></g><g><use fill="#919495" xlink:href="#cryiL"/></g><g><use fill="#919495" xlink:href="#cryiM"/></g><g><use fill="#919495" xlink:href="#cryiN"/></g><g><use fill="#919495" xlink:href="#cryiO"/></g><g/><g clip-path="url(#cryiP)"><use fill="#d5d8d8" xlink:href="#cryiQ"/></g><g clip-path="url(#cryiP)"><use fill="#d5d8d8" xlink:href="#cryiR"/></g><g clip-path="url(#cryiP)"><use fill="#d5d8d8" xlink:href="#cryiS"/></g><g clip-path="url(#cryiP)"><use fill="#d5d8d8" xlink:href="#cryiT"/></g><g clip-path="url(#cryiP)"><use fill="#d5d8d8" xlink:href="#cryiU"/></g><g clip-path="url(#cryiP)"><use fill="#d5d8d8" xlink:href="#cryiV"/></g><g clip-path="url(#cryiP)"><use fill="#d5d8d8" xlink:href="#cryiW"/></g><g clip-path="url(#cryiP)"><use fill="#d5d8d8" xlink:href="#cryiX"/></g><g clip-path="url(#cryiP)"><use fill="#d5d8d8" xlink:href="#cryiY"/></g><g clip-path="url(#cryiP)"><use fill="#d5d8d8" xlink:href="#cryiZ"/></g><g clip-path="url(#cryiP)"><use fill="#d5d8d8" xlink:href="#cryiaa"/></g><g clip-path="url(#cryiP)"><use fill="#d5d8d8" xlink:href="#cryiab"/></g><g clip-path="url(#cryiP)"><use fill="#d5d8d8" xlink:href="#cryiac"/></g><g clip-path="url(#cryiP)"><use fill="#d5d8d8" xlink:href="#cryiad"/></g><g clip-path="url(#cryiP)"><use fill="#d5d8d8" xlink:href="#cryiae"/></g><g clip-path="url(#cryiP)"><use fill="#d5d8d8" xlink:href="#cryiaf"/></g><g clip-path="url(#cryiP)"><use fill="#d5d8d8" xlink:href="#cryiag"/></g><g clip-path="url(#cryiP)"><use fill="#d5d8d8" xlink:href="#cryiah"/></g><g clip-path="url(#cryiP)"><use fill="#d5d8d8" xlink:href="#cryiai"/></g><g clip-path="url(#cryiP)"><use fill="#d5d8d8" xlink:href="#cryiaj"/></g><g clip-path="url(#cryiP)"><use fill="#d5d8d8" xlink:href="#cryiak"/></g><g clip-path="url(#cryiP)"><use fill="#d5d8d8" xlink:href="#cryial"/></g><g clip-path="url(#cryiP)"><use fill="#919495" xlink:href="#cryiam"/></g><g clip-path="url(#cryiP)"><use fill="#fbe6ec" xlink:href="#cryian"/></g><g clip-path="url(#cryiP)"><use fill="#fbe6ec" xlink:href="#cryiao"/></g><g clip-path="url(#cryiP)"><use fill="#e1e2e1" xlink:href="#cryiap"/></g><g clip-path="url(#cryiP)"><use fill="#101418" xlink:href="#cryiaq"/></g><g clip-path="url(#cryiP)"><use fill="#101418" xlink:href="#cryiar"/></g><g clip-path="url(#cryiP)"><use fill="#101418" xlink:href="#cryias"/></g><g clip-path="url(#cryiP)"><use fill="#101418" xlink:href="#cryiat"/></g><g clip-path="url(#cryiP)"><use fill="#101418" xlink:href="#cryiau"/></g><g clip-path="url(#cryiP)"><use fill="#fefefe" xlink:href="#cryiav"/></g><g clip-path="url(#cryiP)"><use fill="#d0cdcd" xlink:href="#cryiaw"/></g><g clip-path="url(#cryiP)"><use fill="#101418" xlink:href="#cryiax"/></g><g clip-path="url(#cryiP)"><use fill="#101418" xlink:href="#cryiay"/></g><g clip-path="url(#cryiP)"><use fill="#f7bfd7" xlink:href="#cryiaz"/></g><g clip-path="url(#cryiP)"><use fill="#101418" xlink:href="#cryiaA"/></g><g clip-path="url(#cryiP)"><use fill="#101418" xlink:href="#cryiaB"/></g><g clip-path="url(#cryiP)"><use fill="#fefefe" xlink:href="#cryiaC"/></g><g clip-path="url(#cryiP)"><use fill="#101418" xlink:href="#cryiaD"/></g><g clip-path="url(#cryiP)"><use fill="#101418" xlink:href="#cryiaE"/></g><g clip-path="url(#cryiP)"><use fill="#101418" xlink:href="#cryiaF"/></g><g clip-path="url(#cryiP)"><use fill="#101418" xlink:href="#cryiaG"/></g><g clip-path="url(#cryiP)"><use fill="#101418" xlink:href="#cryiaH"/></g><g clip-path="url(#cryiP)"><use fill="#d0cdcd" xlink:href="#cryiaI"/></g><g clip-path="url(#cryiP)"><use fill="#101418" xlink:href="#cryiaJ"/></g><g clip-path="url(#cryiP)"><use fill="#101418" xlink:href="#cryiaK"/></g><g clip-path="url(#cryiP)"><use fill="#d0cdcd" xlink:href="#cryiaL"/></g><g clip-path="url(#cryiP)"><use fill="#101418" xlink:href="#cryiaM"/></g><g clip-path="url(#cryiP)"><use fill="#101418" xlink:href="#cryiaN"/></g><g clip-path="url(#cryiP)"><use fill="#d0cdcd" xlink:href="#cryiaO"/></g><g clip-path="url(#cryiP)"><use fill="#101418" xlink:href="#cryiaP"/></g><g clip-path="url(#cryiP)"><use fill="#fefefe" xlink:href="#cryiaQ"/></g><g clip-path="url(#cryiP)"><use fill="#101418" xlink:href="#cryiaR"/></g><g clip-path="url(#cryiP)"><use fill="#101418" xlink:href="#cryiaS"/></g><g clip-path="url(#cryiP)"><use fill="#f7bfd7" xlink:href="#cryiaT"/></g><g clip-path="url(#cryiP)"><use fill="#101418" xlink:href="#cryiaU"/></g><g clip-path="url(#cryiP)"><use fill="#101418" xlink:href="#cryiaV"/></g><g clip-path="url(#cryiP)"><use fill="#101418" xlink:href="#cryiaW"/></g><g clip-path="url(#cryiP)"><use fill="#f7bfd7" xlink:href="#cryiaX"/></g><g clip-path="url(#cryiP)"><use fill="#f7bfd7" xlink:href="#cryiaY"/></g><g clip-path="url(#cryiP)"><use fill="#101418" xlink:href="#cryiaZ"/></g><g clip-path="url(#cryiP)"><use fill="#101418" xlink:href="#cryiba"/></g><g clip-path="url(#cryiP)"><use fill="#101418" xlink:href="#cryibb"/></g><g clip-path="url(#cryiP)"><use fill="#d0cdcd" xlink:href="#cryibc"/></g><g clip-path="url(#cryiP)"><use fill="#101418" xlink:href="#cryibd"/></g><g clip-path="url(#cryiP)"><use fill="#fefefe" xlink:href="#cryibe"/></g><g clip-path="url(#cryiP)"><use fill="#101418" xlink:href="#cryibf"/></g><g clip-path="url(#cryiP)"><use fill="#fefefe" xlink:href="#cryibg"/></g><g clip-path="url(#cryiP)"><use fill="#101418" xlink:href="#cryibh"/></g><g clip-path="url(#cryiP)"><use fill="#101418" xlink:href="#cryibi"/></g><g clip-path="url(#cryiP)"><use fill="#101418" xlink:href="#cryibj"/></g><g clip-path="url(#cryiP)"><use fill="#101418" xlink:href="#cryibk"/></g><g clip-path="url(#cryiP)"><use fill="#101418" xlink:href="#cryibl"/></g><g clip-path="url(#cryiP)"><use fill="#101418" xlink:href="#cryibm"/></g><g clip-path="url(#cryiP)"><use fill="#101418" xlink:href="#cryibn"/></g><g clip-path="url(#cryiP)"><use fill="#101418" xlink:href="#cryibo"/></g><g clip-path="url(#cryiP)"><use fill="#101418" xlink:href="#cryibp"/></g><g clip-path="url(#cryiP)"><use fill="#101418" xlink:href="#cryibq"/></g><g clip-path="url(#cryiP)"><use fill="#fefefe" xlink:href="#cryibr"/></g><g clip-path="url(#cryiP)"><use fill="#fefefe" xlink:href="#cryibs"/></g><g clip-path="url(#cryiP)"><use fill="#101418" xlink:href="#cryibt"/></g><g clip-path="url(#cryiP)"><use fill="#101418" xlink:href="#cryibu"/></g><g clip-path="url(#cryiP)"><use fill="#101418" xlink:href="#cryibv"/></g><g clip-path="url(#cryiP)"><use fill="#f7bfd7" xlink:href="#cryibw"/></g><g clip-path="url(#cryiP)"><use fill="#101418" xlink:href="#cryibx"/></g><g clip-path="url(#cryiP)"><use fill="#101418" xlink:href="#cryiby"/></g><g clip-path="url(#cryiP)"><use fill="#101418" xlink:href="#cryibz"/></g><g clip-path="url(#cryiP)"><use fill="#101418" xlink:href="#cryibA"/></g><g clip-path="url(#cryiP)"><use fill="#fefefe" xlink:href="#cryibB"/></g><g clip-path="url(#cryiP)"><use fill="#101418" xlink:href="#cryibC"/></g><g clip-path="url(#cryiP)"><use fill="#101418" xlink:href="#cryibD"/></g><g clip-path="url(#cryiP)"><use fill="#101418" xlink:href="#cryibE"/></g><g clip-path="url(#cryiP)"><use fill="#101418" xlink:href="#cryibF"/></g><g clip-path="url(#cryiP)"><use fill="#101418" xlink:href="#cryibG"/></g><g clip-path="url(#cryiP)"><use fill="#101418" xlink:href="#cryibH"/></g><g clip-path="url(#cryiP)"><use fill="#fefefe" xlink:href="#cryibI"/></g><g clip-path="url(#cryiP)"><use fill="#101418" xlink:href="#cryibJ"/></g><g clip-path="url(#cryiP)"><use fill="#101418" xlink:href="#cryibK"/></g><g clip-path="url(#cryiP)"><use fill="#101418" xlink:href="#cryibL"/></g><g clip-path="url(#cryiP)"><use fill="#101418" xlink:href="#cryibM"/></g><g clip-path="url(#cryiP)"><use fill="#f7bfd7" xlink:href="#cryibN"/></g><g clip-path="url(#cryiP)"><use fill="#101418" xlink:href="#cryibO"/></g><g clip-path="url(#cryiP)"><use fill="#101418" xlink:href="#cryibP"/></g><g clip-path="url(#cryiP)"><use fill="#101418" xlink:href="#cryibQ"/></g><g clip-path="url(#cryiP)"><use fill="#101418" xlink:href="#cryibR"/></g><g clip-path="url(#cryiP)"><use fill="#101418" xlink:href="#cryibS"/></g><g clip-path="url(#cryiP)"><use fill="#101418" xlink:href="#cryibT"/></g><g clip-path="url(#cryiP)"><use fill="#101418" xlink:href="#cryibU"/></g><g clip-path="url(#cryiP)"><use fill="#101418" xlink:href="#cryibV"/></g><g clip-path="url(#cryiP)"><use fill="#101418" xlink:href="#cryibW"/></g><g clip-path="url(#cryiP)"><use fill="#101418" xlink:href="#cryibX"/></g><g clip-path="url(#cryiP)"><use fill="#f7bfd7" xlink:href="#cryibY"/></g><g clip-path="url(#cryiP)"><use fill="#101418" xlink:href="#cryibZ"/></g><g clip-path="url(#cryiP)"><use fill="#f7bfd7" xlink:href="#cryica"/></g><g clip-path="url(#cryiP)"><use fill="#101418" xlink:href="#cryicb"/></g><g clip-path="url(#cryiP)"><use fill="#101418" xlink:href="#cryicc"/></g><g clip-path="url(#cryiP)"><use fill="#101418" xlink:href="#cryicd"/></g><g clip-path="url(#cryiP)"><use fill="#101418" xlink:href="#cryice"/></g><g clip-path="url(#cryiP)"><use fill="#101418" xlink:href="#cryicf"/></g><g clip-path="url(#cryiP)"><use fill="#101418" xlink:href="#cryicg"/></g><g clip-path="url(#cryiP)"><use fill="#101418" xlink:href="#cryich"/></g><g clip-path="url(#cryiP)"><use fill="#101418" xlink:href="#cryici"/></g><g clip-path="url(#cryiP)"><use fill="#101418" xlink:href="#cryicj"/></g><g clip-path="url(#cryiP)"><use fill="#101418" xlink:href="#cryick"/></g><g clip-path="url(#cryiP)"><use fill="#101418" xlink:href="#cryicl"/></g><g clip-path="url(#cryiP)"><use fill="#bbbdbf" xlink:href="#cryicm"/></g><g clip-path="url(#cryiP)"><use fill="#101418" xlink:href="#cryicn"/></g><g clip-path="url(#cryiP)"><use fill="#101418" xlink:href="#cryico"/></g><g clip-path="url(#cryiP)"><use fill="#101418" xlink:href="#cryicp"/></g><g clip-path="url(#cryiP)"><use fill="#101418" xlink:href="#cryicq"/></g><g clip-path="url(#cryiP)"><use fill="#101418" xlink:href="#cryicr"/></g><g clip-path="url(#cryiP)"><use fill="#101418" xlink:href="#cryics"/></g><g clip-path="url(#cryiP)"><use fill="#101418" xlink:href="#cryict"/></g><g clip-path="url(#cryiP)"><use fill="#101418" xlink:href="#cryicu"/></g><g clip-path="url(#cryiP)"><use fill="#101418" xlink:href="#cryicv"/></g><g clip-path="url(#cryiP)"><use fill="#101418" xlink:href="#cryicw"/></g><g clip-path="url(#cryiP)"><use fill="#101418" xlink:href="#cryicx"/></g><g clip-path="url(#cryiP)"><use fill="#101418" xlink:href="#cryicy"/></g><g clip-path="url(#cryiP)"><use fill="#101418" xlink:href="#cryicz"/></g><g clip-path="url(#cryiP)"><use fill="#101418" xlink:href="#cryicA"/></g><g clip-path="url(#cryiP)"><use fill="#101418" xlink:href="#cryicB"/></g><g clip-path="url(#cryiP)"><use fill="#101418" xlink:href="#cryicC"/></g><g clip-path="url(#cryiP)"><use fill="#101418" xlink:href="#cryicD"/></g><g clip-path="url(#cryiP)"><use fill="#ee4d90" xlink:href="#cryicE"/></g><g clip-path="url(#cryiP)"><use fill="#ee4d90" xlink:href="#cryicF"/></g><g clip-path="url(#cryiP)"><use fill="#ee4d90" xlink:href="#cryicG"/></g><g clip-path="url(#cryiP)"><use fill="#ee4d90" xlink:href="#cryicH"/></g><g clip-path="url(#cryiP)"><use fill="#101418" xlink:href="#cryicI"/></g><g clip-path="url(#cryiP)"><use fill="#101418" xlink:href="#cryicJ"/></g><g clip-path="url(#cryiP)"><use fill="#101418" xlink:href="#cryicK"/></g><g clip-path="url(#cryiP)"><use fill="#101418" xlink:href="#cryicL"/></g><g clip-path="url(#cryiP)"><use fill="#fefefe" xlink:href="#cryicM"/></g><g clip-path="url(#cryiP)"><use fill="#fefefe" xlink:href="#cryicN"/></g><g clip-path="url(#cryiP)"><use fill="#fefefe" xlink:href="#cryicO"/></g><g clip-path="url(#cryiP)"><use fill="#fefefe" xlink:href="#cryicP"/></g><g clip-path="url(#cryiP)"><use fill="#fefefe" xlink:href="#cryicQ"/></g><g clip-path="url(#cryiP)"><use fill="#fefefe" xlink:href="#cryicR"/></g><g clip-path="url(#cryiP)"><use fill="#101418" xlink:href="#cryicS"/></g><g clip-path="url(#cryiP)"><use fill="#101418" xlink:href="#cryicT"/></g><g clip-path="url(#cryiP)"><use fill="#101418" xlink:href="#cryicU"/></g><g clip-path="url(#cryiP)"><use fill="#101418" xlink:href="#cryicV"/></g><g clip-path="url(#cryiP)"><use fill="#fbe6ec" xlink:href="#cryicW"/></g><g clip-path="url(#cryiP)"><use fill="#101418" xlink:href="#cryicX"/></g><g clip-path="url(#cryiP)"><use fill="#101418" xlink:href="#cryicY"/></g><g clip-path="url(#cryiP)"><use fill="#101418" xlink:href="#cryicZ"/></g><g clip-path="url(#cryiP)"><use fill="#101418" xlink:href="#cryida"/></g><g clip-path="url(#cryiP)"><use fill="#101418" xlink:href="#cryidb"/></g><g clip-path="url(#cryiP)"><use fill="#101418" xlink:href="#cryidc"/></g><g clip-path="url(#cryiP)"><use fill="#101418" xlink:href="#cryidd"/></g><g clip-path="url(#cryiP)"><use fill="#101418" xlink:href="#cryide"/></g><g clip-path="url(#cryiP)"><use fill="#101418" xlink:href="#cryidf"/></g><g clip-path="url(#cryiP)"><use fill="#101418" xlink:href="#cryidg"/></g><g clip-path="url(#cryiP)"><use fill="#101418" xlink:href="#cryidh"/></g><g clip-path="url(#cryiP)"><use fill="#101418" xlink:href="#cryidi"/></g><g clip-path="url(#cryiP)"><use fill="#101418" xlink:href="#cryidj"/></g><g clip-path="url(#cryiP)"><use fill="#101418" xlink:href="#cryidk"/></g><g clip-path="url(#cryiP)"><use fill="#101418" xlink:href="#cryidl"/></g><g clip-path="url(#cryiP)"><use fill="#101418" xlink:href="#cryidm"/></g><g clip-path="url(#cryiP)"><use fill="#101418" xlink:href="#cryidn"/></g><g clip-path="url(#cryiP)"><use fill="#101418" xlink:href="#cryido"/></g><g clip-path="url(#cryiP)"><use fill="#101418" xlink:href="#cryidp"/></g><g clip-path="url(#cryiP)"><use fill="#101418" xlink:href="#cryidq"/></g><g clip-path="url(#cryiP)"><use fill="#101418" xlink:href="#cryidr"/></g><g clip-path="url(#cryiP)"><use fill="#101418" xlink:href="#cryids"/></g><g clip-path="url(#cryiP)"><use fill="#101418" xlink:href="#cryidt"/></g><g clip-path="url(#cryiP)"><use fill="#101418" xlink:href="#cryidu"/></g><g clip-path="url(#cryiP)"><use fill="#101418" xlink:href="#cryidv"/></g><g clip-path="url(#cryiP)"><use fill="#101418" xlink:href="#cryidw"/></g><g clip-path="url(#cryiP)"><use fill="#101418" xlink:href="#cryidx"/></g><g clip-path="url(#cryiP)"><use fill="#101418" xlink:href="#cryidy"/></g><g clip-path="url(#cryiP)"><use fill="#101418" xlink:href="#cryidz"/></g><g clip-path="url(#cryiP)"><use fill="#101418" xlink:href="#cryidA"/></g><g clip-path="url(#cryiP)"><use fill="#101418" xlink:href="#cryidB"/></g><g clip-path="url(#cryiP)"><use fill="#101418" xlink:href="#cryidC"/></g><g clip-path="url(#cryiP)"><use fill="#101418" xlink:href="#cryidD"/></g><g clip-path="url(#cryiP)"><use fill="#101418" xlink:href="#cryidE"/></g><g clip-path="url(#cryiP)"><use fill="#101418" xlink:href="#cryidF"/></g><g clip-path="url(#cryiP)"><use fill="#101418" xlink:href="#cryidG"/></g><g clip-path="url(#cryiP)"><use fill="#101418" xlink:href="#cryidH"/></g><g clip-path="url(#cryiP)"><use fill="#101418" xlink:href="#cryidI"/></g><g clip-path="url(#cryiP)"><use fill="#101418" xlink:href="#cryidJ"/></g><g clip-path="url(#cryiP)"><use fill="#101418" xlink:href="#cryidK"/></g><g clip-path="url(#cryiP)"><use fill="#101418" xlink:href="#cryidL"/></g><g clip-path="url(#cryiP)"><use fill="#101418" xlink:href="#cryidM"/></g><g clip-path="url(#cryiP)"><use fill="#101418" xlink:href="#cryidN"/></g><g clip-path="url(#cryiP)"><use fill="#101418" xlink:href="#cryidO"/></g><g clip-path="url(#cryiP)"><use fill="#101418" xlink:href="#cryidP"/></g><g clip-path="url(#cryiP)"><use fill="#101418" xlink:href="#cryidQ"/></g><g clip-path="url(#cryiP)"><use fill="#101418" xlink:href="#cryidR"/></g><g clip-path="url(#cryiP)"><use fill="#101418" xlink:href="#cryidS"/></g><g clip-path="url(#cryiP)"><use fill="#101418" xlink:href="#cryidT"/></g><g clip-path="url(#cryiP)"><use fill="#101418" xlink:href="#cryidU"/></g><g clip-path="url(#cryiP)"><use fill="#101418" xlink:href="#cryidV"/></g><g clip-path="url(#cryiP)"><use fill="#101418" xlink:href="#cryidW"/></g><g clip-path="url(#cryiP)"><use fill="#101418" xlink:href="#cryidX"/></g><g clip-path="url(#cryiP)"><use fill="#101418" xlink:href="#cryidY"/></g><g clip-path="url(#cryiP)"><use fill="#101418" xlink:href="#cryidZ"/></g><g clip-path="url(#cryiP)"><use fill="#101418" xlink:href="#cryiea"/></g><g clip-path="url(#cryiP)"><use fill="#101418" xlink:href="#cryieb"/></g><g clip-path="url(#cryiP)"><use fill="#101418" xlink:href="#cryiec"/></g><g clip-path="url(#cryiP)"><use fill="#f7bfd7" xlink:href="#cryied"/></g><g clip-path="url(#cryiP)"><use fill="#101418" xlink:href="#cryiee"/></g><g clip-path="url(#cryiP)"><use fill="#101418" xlink:href="#cryief"/></g><g clip-path="url(#cryiP)"><use fill="#101418" xlink:href="#cryieg"/></g><g clip-path="url(#cryiP)"><use fill="#101418" xlink:href="#cryieh"/></g><g clip-path="url(#cryiP)"><use fill="#101418" xlink:href="#cryiei"/></g><g clip-path="url(#cryiP)"><use fill="#101418" xlink:href="#cryiej"/></g><g clip-path="url(#cryiP)"><use fill="#101418" xlink:href="#cryiek"/></g></g></g></svg>