<svg xmlns="http://www.w3.org/2000/svg" xmlns:xlink="http://www.w3.org/1999/xlink" width="137" height="39" viewBox="0 0 137 39"><defs><path id="ykb5b" d="M215.97 32.11h3.89c1.82 0 3.15.27 3.96.82.82.55 1.23 1.41 1.23 2.59a3 3 0 0 1-.68 2.02 3.3 3.3 0 0 1-2 1.03v.1c2.1.35 3.14 1.46 3.14 3.3 0 1.23-.42 2.19-1.25 2.88-.83.69-2 1.03-3.49 1.03h-4.8zm1.6 5.9h2.64c1.13 0 1.94-.17 2.43-.53.5-.35.75-.95.75-1.8 0-.77-.28-1.33-.83-1.67a5.18 5.18 0 0 0-2.63-.51h-2.36zm0 1.35v5.16h2.88c1.1 0 1.94-.22 2.5-.65.56-.43.85-1.1.85-2.02 0-.85-.3-1.48-.86-1.89-.58-.4-1.45-.6-2.63-.6zm10.9-7.25h1.6v13.77h-1.6zm6.97 8.05v5.72h-1.6V32.11h3.77c1.7 0 2.94.33 3.75.97.8.65 1.2 1.62 1.2 2.92 0 1.82-.92 3.05-2.76 3.7l3.74 6.18h-1.9l-3.33-5.72zm0-1.38h2.2c1.12 0 1.95-.22 2.48-.67.52-.45.79-1.12.79-2.02 0-.9-.27-1.57-.8-1.97-.54-.4-1.4-.6-2.59-.6h-2.08zm19.46 5.3c-1.24 1.2-3.01 1.8-5.33 1.8h-3.81V32.11h4.21c2.15 0 3.8.6 5 1.78 1.18 1.19 1.78 2.85 1.78 4.97 0 2.28-.62 4.02-1.85 5.22zm-1.2-9.22c-.9-.9-2.24-1.36-4.01-1.36h-2.33v11h1.95c1.9 0 3.34-.47 4.3-1.41s1.44-2.33 1.44-4.17c0-1.8-.45-3.15-1.35-4.06z"/><path id="ykb5a" d="M150.24 56.84H120V18.29h30.24v38.55z"/><path id="ykb5d" d="M137.37 24.73h-.02l-.07-.01h-.08l-.07-.01-.08-.01h-.08l-.08-.01h-.07l-.08-.01h-.08l-.05-.01h-.03l-.16-.01h-.08l-.08-.01h-.16l-.08-.01h-.2v2.27a15.13 15.13 0 0 1 5.9 28.73v.24c0 .53-.43.96-.96.96h-4.2v-2.89c7.44-1.1 10.4-7.02 9.99-14.03l2.05-1.6-2.41-.84a5.53 5.53 0 0 0-6.5-4.24c-2.74.54-4.8 2.96-4.62 6.27.5 9.2-2.14 12.06-8.45 11.47 1.94 1.94 4.49 2.9 7.06 3.08v2.78h-4.2a.96.96 0 0 1-.96-.96v-.24a15.13 15.13 0 0 1 5.9-28.73v-2.28h-.2l-.08.01h-.16l-.08.01h-.08l-.16.02h-.16l-.08.01h-.07l-.08.01h-.08l-.08.02H133.02l-.06.01H132.87v-5.8c0-.35 1-.63 2.25-.63 1.24 0 2.25.28 2.25.63zm-1.79 32.1h-.92V54.1c.3 0 .62 0 .92-.03zm7.1-20.24c0 .47-.4.85-.9.85s-.91-.38-.91-.85c0-.48.4-.86.9-.86s.91.38.91.86zm-7.56-16.35a.63.63 0 1 0 0 1.27.63.63 0 0 0 0-1.27z"/><path id="ykb5e" d="M178.65 51.67a.92.92 0 1 1 0 1.85.92.92 0 0 1 0-1.85"/><path id="ykb5f" d="M236.09 51.67a.92.92 0 1 1 0 1.85.92.92 0 0 1 0-1.85"/><path id="ykb5g" d="M185.78 54.71h-.3l-2.5-3.75h-.02l.03 1v2.75h-.28v-4.23h.3l2.5 3.75h.01c-.02-.35-.02-.68-.02-.99v-2.76h.28zm22.74-1.91l1.24-2.32h.32l-1.4 2.6v1.63h-.31v-1.6l-1.42-2.63h.34zM192.8 54.7h-2.31v-4.23h2.3v.28h-2v1.6h1.9v.27h-1.9v1.8h2zm7.81 0h-.24l-.93-3.26a9.99 9.99 0 0 1-.17-.66l-.13.58-.93 3.34h-.25l-1.17-4.23h.31l.75 2.73.08.3.06.27.06.23.04.23c.05-.26.15-.66.3-1.2l.72-2.56h.33l.85 2.95c.1.34.16.61.2.82l.1-.44.9-3.33h.3zm16.62-.52c-.33.38-.8.58-1.39.58-.58 0-1.05-.2-1.39-.58-.33-.4-.5-.93-.5-1.6 0-.68.17-1.2.51-1.6.34-.38.8-.57 1.39-.57.59 0 1.05.2 1.38.58.34.39.5.92.5 1.6 0 .66-.17 1.2-.5 1.59zm-2.55-.2c.27.34.66.5 1.16.5.51 0 .9-.16 1.17-.49.27-.33.4-.8.4-1.41 0-.6-.13-1.08-.4-1.4-.27-.33-.66-.49-1.16-.49-.5 0-.9.16-1.17.5-.27.32-.4.79-.4 1.39 0 .6.13 1.08.4 1.4zm7.81-1.12v1.84h-.29v-4.23h1c.53 0 .92.1 1.17.3.25.19.37.48.37.87 0 .28-.07.52-.22.72-.15.19-.38.33-.68.42l1.15 1.92h-.36l-1.09-1.84zm0-.26h.8c.37 0 .64-.08.84-.24.2-.15.3-.39.3-.7 0-.32-.1-.56-.3-.7-.19-.16-.5-.23-.94-.23h-.7zm9.56 2.1h-.36l-1.62-2.23-.57.5v1.73h-.29v-4.23h.3v2.2l.47-.47 1.65-1.73h.37l-1.72 1.79z"/><path id="ykb5h" d="M165.23 45.07c-.85.67-1.97 1-3.37 1-1.68 0-2.97-.18-3.87-.55v-.96c1 .42 2.26.63 3.8.63 1.13 0 2.02-.26 2.69-.78.66-.52.99-1.2.99-2.04 0-.51-.11-.95-.33-1.29a3.04 3.04 0 0 0-1.08-.94c-.5-.28-1.22-.58-2.18-.91-1.4-.49-2.38-1-2.91-1.57a3.12 3.12 0 0 1-.8-2.25c0-1.03.4-1.87 1.2-2.52a4.8 4.8 0 0 1 3.11-.97c1.3 0 2.51.24 3.65.73l-.35.83a8.48 8.48 0 0 0-3.28-.71c-1.02 0-1.82.23-2.43.7-.6.47-.9 1.11-.9 1.92 0 .51.1.93.28 1.26.18.32.49.62.9.88.43.26 1.15.57 2.17.93 1.08.38 1.88.74 2.42 1.08.54.35.93.75 1.18 1.2.25.44.37.97.37 1.6a3.3 3.3 0 0 1-1.26 2.73zm5.97-10.64c-1 1.1-1.49 2.62-1.49 4.55 0 1.96.47 3.5 1.4 4.58a5 5 0 0 0 4.01 1.63c1.16 0 2.22-.15 3.19-.44v.84c-.91.33-2.05.49-3.4.49a5.8 5.8 0 0 1-4.58-1.88c-1.1-1.25-1.66-3-1.66-5.23 0-1.4.26-2.64.8-3.7a5.8 5.8 0 0 1 2.28-2.48c1-.58 2.15-.87 3.47-.87a8.5 8.5 0 0 1 3.6.74l-.38.86c-1-.5-2.06-.75-3.16-.75a5.2 5.2 0 0 0-4.08 1.66zm17.7 11.46h-7.52V32.1h7.53V33h-6.56v5.2h6.19v.9h-6.2V45h6.57zm13.12 0h-.96l-8.15-12.23h-.08c.08 1.45.1 2.56.1 3.3v8.93h-.91V32.1h.96l8.14 12.21h.05c-.05-1.13-.08-2.2-.08-3.22V32.1h.93zm7.5 0h-.98V33.02h-4.47v-.9h9.92v.9h-4.48z"/><clipPath id="ykb5c"><use xlink:href="#ykb5a"/></clipPath></defs><g><g transform="translate(-120 -18)"><g><use fill="#ed498d" xlink:href="#ykb5b"/></g><g><g/><g clip-path="url(#ykb5c)"><use fill="#010202" xlink:href="#ykb5d"/></g></g><g><use fill="#010202" xlink:href="#ykb5e"/></g><g><use fill="#010202" xlink:href="#ykb5f"/></g><g><use fill="#010202" xlink:href="#ykb5g"/></g><g><use fill="#010202" xlink:href="#ykb5h"/></g></g></g></svg>