<svg xmlns="http://www.w3.org/2000/svg" xmlns:xlink="http://www.w3.org/1999/xlink" width="58" height="80" viewBox="0 0 58 80"><defs><path id="7lofb" d="M476.26 647.79c-2.54 8.7 2.63 32.66-.06 37.21-2.78 4.71.67.52-4.33 6.66-3.47 4.26 33.77 6.44 33.77-10.97 0-7.01-.63-13.78 5.18-16.71 5.98-3.01 2.55-15.7 1.03-9.1-2.33.53-3.2-.83-3.51-3.01-.57 8.57-2.07 18.68-5.3 24.36-2.1 3.7-4.29 3.9-3.3 2.74 3.26-3.8 1.2-5.27 2.05-9.38.93-4.41 2.99-23.16.86-32.78-1.94.3-4.55 1.35-8.05 3.44-3.77 2.24-12.3 9.3-18.34 7.54"/><path id="7lofc" d="M508.16 657.38c7.38-3.11 8.64-10 6.02-20.24-1.86.7-1.64 1.7-3.33.71-2.07-1.22-5.07-1.31-7.44-1.95.02 3.48 4.75 10.14 4.75 21.48m-7.53-31.7c-9.87-9.95-26.88 3.12-30.26-3.78l-.96-1.9c-2.88 7.05-10.62 11.52-5.94 22 2.24 5.03 4.47 8.52 8.81 11.75 0 2.44-.14 5.14.87 7.37 0-10.88 16.05-5.17 25.3-21.3.54-.92 3.75-3.69 4.9-3.93-1.39-.38-2.55-.95-3.18-2.05-2.77-4.8-9.34.78-11.95 3-12.32 10.57-18.27-.4-16.64.24 4.66 1.82 7.55.59 12.07-1.67 2.66-1.33 3.93-3.33 5.32-4.2 3.02-1.93 1.2-3.18 1.1-4.1-.35-3.77 7.37-2.08 10.56-1.43"/><path id="7lofd" d="M504.91 636.33a.64.64 0 0 1 1.2-.42c.16.44.5.9.78 1.32l.02.04c.26.36.48.68.6.98 2.87 7.76 2.94 8.73 2.92 15.23 1.04-2.62 2.3-7.1 2.74-11.31.22-2.2.22-4.3-.19-6-.37-1.6-1.09-2.8-2.28-3.35-.9-.41-2.1-.47-3.67-.05a.64.64 0 0 1-.72-.32c-1.74-2.8-3.7-4.49-5.84-5.44-2.15-.95-4.5-1.17-7-1.03-.88.05-2.1.24-3.46.45-3.17.49-7.1 1.1-10.08.4.14.18.3.35.46.5a5.64 5.64 0 0 0 2.25 1.19.64.64 0 0 1-.11 1.25c-.84.05-1.56.15-2.2.28-.63.12-1.2.29-1.76.5-1.9.67-4.21 1.44-6.43 1.1-2.04-.3-3.93-1.5-5.26-4.44l-.45.8c-2.07 3.95-2.4 7.48-1.52 10.46.88 2.98 2.98 5.45 5.8 7.25.47.31.95.6 1.45.85.3.16.43.55.27.86-.59 1.13-.55 2.83-.24 4.48.27 1.38.72 2.7 1.16 3.63a16.24 16.24 0 0 1 1.38-4.2.64.64 0 0 1 1.13.59 13.86 13.86 0 0 0-1.41 5.33.64.64 0 0 1-1 .52c-.83-.58-2.01-3.06-2.5-5.63a9.46 9.46 0 0 1 .1-4.73c-.36-.2-.7-.41-1.04-.62-3.05-1.97-5.35-4.67-6.32-7.97-.97-3.28-.62-7.14 1.61-11.4.35-.66.74-1.32 1.16-1.98.07-.12.19-.2.33-.26.33-.11.7.06.8.4 1.15 3.27 2.88 4.52 4.73 4.8 1.93.3 4.06-.42 5.82-1.05.6-.21 1.23-.4 1.94-.54l.11-.02a5.84 5.84 0 0 1-.65-.5 4.21 4.21 0 0 1-1.38-2.38.64.64 0 0 1 .88-.7c2.71 1.21 7.23.52 10.78-.03 1.37-.21 2.6-.4 3.59-.46 2.68-.15 5.22.09 7.58 1.14 2.26 1 4.34 2.74 6.18 5.57 1.65-.36 3-.24 4.06.24 1.6.73 2.53 2.25 3 4.21.43 1.85.44 4.1.2 6.43-.63 6.13-3.08 12.93-4.13 14.16a.64.64 0 0 1-1.14-.39v-2.06c.02-6.77.02-7.55-2.85-15.32-.06-.16-.24-.41-.44-.7l-.02-.03a7.05 7.05 0 0 1-.94-1.63"/><path id="7lofe" d="M475.24 649.38a.64.64 0 0 1 .35-1.22c2.73.78 5.68.41 8.34-.73a15.25 15.25 0 0 0 6.9-5.82 15.58 15.58 0 0 1 4.8-5.06 11.1 11.1 0 0 1 6.03-1.74h.3a.64.64 0 0 1 0 1.28h-.3c-2.02 0-3.8.56-5.35 1.54a14.32 14.32 0 0 0-4.4 4.65 16.54 16.54 0 0 1-7.48 6.33 13.83 13.83 0 0 1-9.19.78"/><path id="7loff" d="M472.7 656.65a.63.63 0 1 1 1.25-.2c.25 1.57.45 3.15.65 4.69.5 3.93.97 7.61 2.03 10.18 1.21 2.94 2.9 5.82 4.88 7.8 1.6 1.63 3.4 2.65 5.23 2.6 1.31-.04 2.57 0 3.81.03 1.61.05 3.17.1 4.7-.04 3.1-.26 5.82-2.51 7.9-5.55 2.6-3.79 4.21-8.75 4.44-12.68a.64.64 0 0 1 1.05-.45c.54.41 1.01.64 1.43.7.62.1 1.14-.15 1.58-.63.52-.55.93-1.4 1.26-2.35.74-2.17.96-4.8.85-5.94a.63.63 0 1 1 1.27-.11c.12 1.24-.12 4.12-.92 6.46a7.9 7.9 0 0 1-1.52 2.8c-.73.8-1.63 1.21-2.73 1.03a3.74 3.74 0 0 1-1.09-.37 28.5 28.5 0 0 1-4.57 12.26c-2.28 3.33-5.3 5.8-8.84 6.1-1.57.14-3.18.09-4.84.04-1.22-.04-2.47-.07-3.74-.04-2.23.07-4.33-1.1-6.17-2.96-2.1-2.1-3.89-5.13-5.16-8.22-1.12-2.72-1.6-6.49-2.12-10.5-.19-1.54-.4-3.1-.63-4.65"/><path id="7lofa" d="M519.44 694.08v-25.09h-13.4v25.09h13.4z"/><path id="7lofh" d="M506.52 669.52a.64.64 0 1 1 1.26.2c-.1.6-.18 1.2-.25 1.81-.54 4.81-.11 9.78 1.6 13.73 1.66 3.85 4.58 6.73 9.06 7.46l.68.09a.64.64 0 0 1-.14 1.27l-.74-.1c-4.97-.82-8.2-3.98-10.03-8.22-1.8-4.16-2.25-9.36-1.7-14.36.08-.63.16-1.25.26-1.88"/><path id="7lofi" d="M478.09 684.71a.64.64 0 0 1 1.24.27c-.58 2.7-1.6 4.7-2.87 6.28a14.56 14.56 0 0 1-4.34 3.54.64.64 0 1 1-.61-1.11c1.43-.8 2.8-1.81 3.96-3.24a13.43 13.43 0 0 0 2.62-5.74"/><path id="7lofj" d="M480.96 643.33a.64.64 0 1 1 .49 1.17 8.58 8.58 0 0 1-6.14.16 9.45 9.45 0 0 1-4.97-3.97.64.64 0 1 1 1.1-.66 8.16 8.16 0 0 0 4.28 3.42c1.65.57 3.49.6 5.24-.12"/><path id="7lofk" d="M475 692.46a.64.64 0 0 1 .87-.93c4.03 3.73 8.1 5.86 12.06 6.68 4.28.87 8.47.2 12.43-1.64a.64.64 0 0 1 .54 1.15 20.87 20.87 0 0 1-13.22 1.73c-4.2-.85-8.46-3.09-12.68-6.99"/><clipPath id="7lofg"><use xlink:href="#7lofa"/></clipPath></defs><g><g transform="translate(-462 -620)"><g><use fill="#e6e6e6" xlink:href="#7lofb"/></g><g><use fill="#eaeaea" xlink:href="#7lofc"/></g><g><use fill="#2b2b2b" xlink:href="#7lofd"/></g><g><use fill="#2b2b2b" xlink:href="#7lofe"/></g><g><use fill="#2b2b2b" xlink:href="#7loff"/></g><g><g/><g clip-path="url(#7lofg)"><use fill="#2b2b2b" xlink:href="#7lofh"/></g></g><g><use fill="#2b2b2b" xlink:href="#7lofi"/></g><g><use fill="#2b2b2b" xlink:href="#7lofj"/></g><g><use fill="#2b2b2b" xlink:href="#7lofk"/></g></g></g></svg>