<svg xmlns="http://www.w3.org/2000/svg" xmlns:xlink="http://www.w3.org/1999/xlink" width="28" height="34" viewBox="0 0 28 34"><defs><path id="lxapa" d="M93 1509.12v-14.87c-.24.03-1.02.11-2.11.11-2.87 0-8.21-.57-11.89-4.36-3.68 3.8-9.02 4.36-11.89 4.36-1.09 0-1.87-.08-2.11-.1v14.86c0 2 .74 4.02 2.19 6.02a22.88 22.88 0 0 0 4.82 4.7c3.3 2.49 6.65 4 6.99 4.16.34-.15 3.69-1.67 7-4.15a22.88 22.88 0 0 0 4.82-4.71c1.45-2 2.18-4.02 2.18-6.02m-6.5 7.95a35.64 35.64 0 0 1-7.47 4.91l-.03.02-.03-.01c-1-.49-4.5-2.27-7.48-4.9a16.94 16.94 0 0 1-3.18-3.62 7.75 7.75 0 0 1-1.31-4.1v-12.71h.1c1.3 0 3.31-.11 5.48-.65 2.45-.6 4.6-1.6 6.38-2.98l.04-.03.04.03a16.88 16.88 0 0 0 6.38 2.98c2.17.54 4.18.65 5.48.65h.1v12.71c0 1.33-.44 2.7-1.31 4.1a17 17 0 0 1-3.18 3.6"/><path id="lxapb" d="M83.6 1505.61c.22 0 .4.18.4.4v7.59a.4.4 0 0 1-.4.4h-9.2a.4.4 0 0 1-.4-.4v-7.58c0-.23.18-.4.4-.4h.7v-1.71a3.91 3.91 0 0 1 7.8 0v1.7zm-4.02 4.45c.25-.2.42-.54.42-.93 0-.62-.45-1.13-1-1.13s-1 .5-1 1.13c0 .39.17.72.42.93v1.67c0 .15.1.27.24.27h.68c.13 0 .24-.12.24-.27zm1.42-5.88c0-1.2-.9-2.18-2-2.18s-2 .98-2 2.18v1.82h4z"/></defs><g><g transform="translate(-65 -1490)"><g><use fill="#74bb2c" xlink:href="#lxapa"/></g><g><use fill="#74bb2c" xlink:href="#lxapb"/></g></g></g></svg>