<svg xmlns="http://www.w3.org/2000/svg" xmlns:xlink="http://www.w3.org/1999/xlink" width="60" height="74" viewBox="0 0 60 74"><defs><path id="e9ioa" d="M298.68 623H259v73.46h59.72V623H259v59h39.68v-59z"/><path id="e9iod" d="M275.16 625.57c-32.41 11.02-8.04 65.15 3.95 55.22 0-6.2-24.7-26.55 3.14-34.61.54-.16 10.25-5.74-.1-4.72-12.22 1.2 1.61-12.31 13.87-15.23 8.83-2.1-5.97-5.72-20.86-.66"/><path id="e9ioe" d="M309.8 644.35c8.34 1.58.2 26.93-8.23 30.56-5.55 2.39 12.92-14.17 4.58-29.86-.56-1.05 1.9-1.03 3.66-.7"/><path id="e9iob" d="M318.73 696.46v-56.2h-47.25v56.2h47.25z"/><path id="e9iog" d="M316.61 689.55c-3.53-3.45-21.42-7.17-11.54-24 3.72-6.34 4.31-31.77-8.1-23.74-4 2.6-12.09 3.4-19.19 7.6l-.26.12c-8.2 12.04 14.35 26.56-4.24 34.9-8.8 3.95 17.31 11.05 21.37 11.2 1.03.04 32.37 4.07 21.96-6.08"/><path id="e9ioh" d="M306.7 662.66a30.2 30.2 0 0 1-2.27 5.9 15.96 15.96 0 0 1-3.91 4.97 18.34 18.34 0 0 1-7.26 3.5.64.64 0 0 1-.33-1.23 17.09 17.09 0 0 0 6.77-3.25c1.6-1.33 2.7-2.9 3.6-4.6a28.88 28.88 0 0 0 2.16-5.62c.23-.88.41-2.1.54-3.85.13-1.79.21-4.07.25-7.02 0-.35.29-.63.64-.63"/><path id="e9ioi" d="M311.5 687.32c-3.56-.68-7.03-1.34-9.06-3.95a11.43 11.43 0 0 1-2.11-5.23c-.3-1.84-.33-3.7-.33-5.37a.64.64 0 0 1 1.28 0c0 1.62.02 3.43.3 5.16.29 1.7.83 3.32 1.87 4.66 1.73 2.23 4.96 2.85 8.27 3.48"/><path id="e9ioj" d="M274.85 657.32a.64.64 0 0 1 1.28 0c0 4.06.64 7 1.95 9.56 1.32 2.58 3.35 4.81 6.1 7.45.14.12.2.29.2.46 0 1.3-.27 3.03-.82 4.7a12.64 12.64 0 0 1-2.03 3.92c-2.06 2.56-5.48 3.24-8.99 3.93-3.02.6-6.1 1.22-8.18 3.08a.64.64 0 1 1-.85-.95c2.34-2.1 5.6-2.74 8.8-3.38 3.26-.65 6.46-1.28 8.23-3.48.78-.96 1.38-2.22 1.8-3.52.48-1.43.73-2.89.76-4.04-2.74-2.64-4.78-4.92-6.15-7.59-1.41-2.75-2.1-5.87-2.1-10.14"/><path id="e9iok" d="M303.39 632.88a.64.64 0 0 1 1.13.59c-4.43 8.53-13.95 12.02-21.76 14.89-3.11 1.14-5.95 2.18-8.03 3.39-3.16 1.83-4.53 4.12-2.27 8a.64.64 0 1 1-1.1.64c-2.75-4.74-1.1-7.52 2.73-9.75 2.18-1.26 5.06-2.32 8.23-3.48 7.6-2.79 16.87-6.18 21.07-14.28"/><path id="e9iol" d="M304.8 632.63a.64.64 0 0 1-1.24-.24c.37-1.95-.64-3.59-2.56-4.8a16.8 16.8 0 0 0-6.58-2.1 32.64 32.64 0 0 0-8.9.12c-9.51 1.38-19.85 6.76-23.44 17.76l-.33 1.07c-1.88 6.8-.77 14.28 2.64 20.65a29.1 29.1 0 0 0 17.7 14.41.64.64 0 0 1-.33 1.23 30.38 30.38 0 0 1-18.49-15.04c-3.56-6.65-4.72-14.46-2.74-21.59a25 25 0 0 1 .34-1.12c3.77-11.56 14.56-17.19 24.47-18.63a33.9 33.9 0 0 1 9.24-.12c2.83.38 5.3 1.16 7.09 2.3 2.38 1.48 3.63 3.56 3.14 6.1"/><path id="e9iom" d="M313.97 638c-2.18-3.13-5.32-5.18-9.42-5.34a.63.63 0 1 1 .05-1.27c4.55.18 8 2.43 10.41 5.88"/><path id="e9ion" d="M317.79 662.52c-1.99 7.13-6.15 13.3-12.39 15.66a.64.64 0 0 1-.45-1.2c5.82-2.19 9.73-8.04 11.61-14.8"/><path id="e9ioo" d="M307.84 649.38c-2.38-3.4-4.96-7.1-4.18-11.23a.64.64 0 0 1 1.25.23c-.68 3.6 1.75 7.08 3.98 10.27"/><clipPath id="e9ioc"><use xlink:href="#e9ioa"/></clipPath><clipPath id="e9iof"><use xlink:href="#e9iob"/></clipPath></defs><g><g transform="translate(-259 -623)"><g/><g clip-path="url(#e9ioc)"><use fill="#eaeaea" xlink:href="#e9iod"/></g></g><g transform="translate(-259 -623)"><use fill="#eaeaea" xlink:href="#e9ioe"/></g><g transform="translate(-259 -623)"><g/><g clip-path="url(#e9iof)"><use fill="#ffebf3" xlink:href="#e9iog"/></g></g><g transform="translate(-259 -623)"><use fill="#2b2b2b" xlink:href="#e9ioh"/></g><g transform="translate(-259 -623)"><use fill="#2b2b2b" xlink:href="#e9ioi"/></g><g transform="translate(-259 -623)"><use fill="#2b2b2b" xlink:href="#e9ioj"/></g><g transform="translate(-259 -623)"><use fill="#2b2b2b" xlink:href="#e9iok"/></g><g transform="translate(-259 -623)"><use fill="#2b2b2b" xlink:href="#e9iol"/></g><g transform="translate(-259 -623)"><use fill="#2b2b2b" xlink:href="#e9iom"/></g><g transform="translate(-259 -623)"><use fill="#2b2b2b" xlink:href="#e9ion"/></g><g transform="translate(-259 -623)"><use fill="#2b2b2b" xlink:href="#e9ioo"/></g></g></svg>